<?xml version="1.0" encoding="UTF-8"?>
<svg id="_Слой_2" data-name="Слой 2" xmlns="http://www.w3.org/2000/svg" viewBox="0 0 756.55 492.05">
  <defs>
    <style>

      .cls-1 {
        fill: #5933a3;
        font-family: Muli-Bold, Muli;
        font-size: 30px;
        font-weight: 700;
      }

      .cls-2 {
        letter-spacing: -.01em;
      }

      .cls-3 {
        fill: #f0f0f0;
      }

      .cls-4 {
        fill: #5a477f;
      }

      .cls-5 {
        opacity: .5;
      }

      .cls-6 {
        fill: #f5f5f5;
      }

      .cls-7 {
        opacity: .2;
      }

      .cls-8 {
        fill: #e0e0e0;
      }

      .cls-9 {
        fill: #cba9f9;
      }

      .cls-10 {
        fill: #ff725e;
      }

      .cls-11 {
        letter-spacing: -.01em;
      }

      .cls-12 {
        opacity: .4;
      }

      .cls-13 {
        opacity: .3;
      }

      .cls-14 {
        opacity: .1;
      }

      .cls-15 {
        fill: #ebebeb;
      }

      .cls-16 {
        fill: #beafe2;
      }

      .cls-17 {
        letter-spacing: 0em;
      }

      .cls-18 {
        fill: #6b53a5;
      }

      .cls-19 {
        fill: #8971af;
      }

      .cls-20 {
        fill: #263238;
      }
    </style>
  </defs>
  <g id="Bridge">
    <g>
      <path class="cls-15" d="m69.28,65.11c-1.03-2.76-2.09-5.56-3.83-7.94-1.74-2.38-4.28-4.33-7.21-4.69-2.93-.36-6.17,1.22-7.12,4.01-.42-6.29-1.31-12.73-4.46-18.19-3.15-5.46-9.02-9.74-15.3-9.36-5.93.36-11,4.77-13.82,9.99-2.82,5.23-3.79,11.22-4.71,17.09-2.25-2.76-6.99-1.89-9.34.78-2.35,2.67-2.94,6.41-3.44,9.94h70.74l-1.51-1.63Z"/>
      <path class="cls-15" d="m715.28,21.18c-.61-1.62-1.22-3.25-2.24-4.65-1.02-1.39-2.51-2.53-4.22-2.74-1.71-.21-3.61.71-4.17,2.35-.25-3.68-.77-7.45-2.61-10.65-1.84-3.19-5.28-5.7-8.96-5.48-3.47.21-6.44,2.79-8.09,5.85s-2.22,6.57-2.76,10c-1.32-1.61-4.09-1.11-5.47.46-1.37,1.57-1.72,3.75-2.01,5.82h41.41l-.88-.96Z"/>
      <path class="cls-6" d="m753.62,162.47c-2.02-5.38-4.07-10.84-7.46-15.48-3.39-4.64-8.34-8.44-14.05-9.14-5.7-.7-12.02,2.38-13.88,7.82-.82-12.25-2.55-24.82-8.69-35.46-6.13-10.64-17.58-19-29.84-18.25-11.56.71-21.45,9.29-26.95,19.48-5.5,10.19-7.39,21.88-9.19,33.32-4.38-5.38-13.63-3.69-18.2,1.53-4.57,5.21-5.73,12.5-6.7,19.37h137.9l-2.94-3.19Z"/>
      <path class="cls-8" d="m249.63,435.97c-2.55-2.9-5.58-5.49-7.26-8.97l-99.06,1.33c.59,3.32,3.14,6.03,6.1,7.64s6.32,2.32,9.62,2.99c8.78,1.8,17.56,3.6,26.34,5.4,1.87.38,3.79.79,5.37,1.86s2.75,2.97,2.37,4.84c-.59,2.93-4.2,3.93-7.15,4.37-14.36,2.17-28.64,4.92-42.78,8.25-2.73.64-5.54,1.35-7.74,3.08-2.2,1.73-3.61,4.79-2.59,7.4,1.34,3.4,5.69,4.23,9.33,4.52,30.12,2.4,60.43,2.38,90.54-.07,2.08-.17,4.75-.95,4.78-3.03.02-1.59-1.63-2.64-3.11-3.22-5.07-2.01-10.58-2.55-16.01-3.06-12.96-1.23-25.92-2.45-38.88-3.68,19.48-3.04,38.97-6.07,58.45-9.11,3.33-.52,6.71-1.06,9.72-2.58,3-1.52,5.6-4.23,6.12-7.55.59-3.82-1.61-7.51-4.16-10.41Z"/>
      <path class="cls-8" d="m608.73,435.97c-2.55-2.9-5.58-5.49-7.26-8.97l-99.06,1.33c.59,3.32,3.14,6.03,6.1,7.64,2.96,1.62,6.32,2.32,9.62,2.99,8.78,1.8,17.56,3.6,26.34,5.4,1.87.38,3.79.79,5.37,1.86s2.75,2.97,2.37,4.84c-.59,2.93-4.2,3.93-7.15,4.37-14.36,2.17-28.64,4.92-42.78,8.25-2.73.64-5.54,1.35-7.74,3.08-2.2,1.73-3.61,4.79-2.59,7.4,1.34,3.4,5.69,4.23,9.33,4.52,30.12,2.4,60.43,2.38,90.54-.07,2.08-.17,4.75-.95,4.78-3.03.02-1.59-1.63-2.64-3.11-3.22-5.07-2.01-10.58-2.55-16.01-3.06-12.96-1.23-25.92-2.45-38.88-3.68,19.48-3.04,38.97-6.07,58.45-9.11,3.33-.52,6.71-1.06,9.72-2.58,3-1.52,5.6-4.23,6.12-7.55.59-3.82-1.61-7.51-4.16-10.41Z"/>
      <path class="cls-20" d="m679.67,358.77c0,.14-143.27.26-319.95.26s-319.98-.12-319.98-.26,143.24-.26,319.98-.26,319.95.12,319.95.26Z"/>
      <g>
        <path class="cls-16" d="m309.85,423.08l3.74,3.34h32.68v-2.62s-22.96,0-26-.24c-3.73-.29-10.42-.48-10.42-.48Z"/>
        <path class="cls-16" d="m318.57,424.17c-.05-.23,0-4.27,0-4.27l15.45.85.61,3.43h-16.06Z"/>
        <rect class="cls-16" x="319.74" y="421.74" width="1.04" height="1.35"/>
        <rect class="cls-16" x="324.3" y="421.74" width="1.35" height="1.35"/>
        <rect class="cls-16" x="330.13" y="421.74" width="1.35" height="1.35"/>
        <path class="cls-16" d="m328.71,394.16c.14,0,.26,6.48.26,14.46s-.12,14.46-.26,14.46-.26-6.47-.26-14.46.12-14.46.26-14.46Z"/>
      </g>
      <g>
        <path class="cls-16" d="m485.99,451.84l-3.74,3.34h-30.78l-1.9-2.62s22.96,0,26-.24c3.73-.29,10.42-.48,10.42-.48Z"/>
        <path class="cls-16" d="m477.26,452.93c.05-.23,0-4.27,0-4.27l-15.45.85-.61,3.43h16.06Z"/>
        <rect class="cls-16" x="475.06" y="450.49" width="1.04" height="1.35" transform="translate(951.16 902.34) rotate(180)"/>
        <rect class="cls-16" x="470.18" y="450.49" width="1.35" height="1.35" transform="translate(941.71 902.34) rotate(180)"/>
        <rect class="cls-16" x="464.35" y="450.49" width="1.35" height="1.35" transform="translate(930.06 902.34) rotate(180)"/>
        <path class="cls-16" d="m467.12,438.77c.14,0,.26,2.93.26,6.54s-.12,6.54-.26,6.54-.26-2.93-.26-6.54.12-6.54.26-6.54Z"/>
      </g>
      <path class="cls-20" d="m279.37,427.16c0,.14-38.52.26-86.03.26s-86.04-.12-86.04-.26,38.51-.26,86.04-.26,86.03.12,86.03.26Z"/>
      <path class="cls-20" d="m455.37,377.89c0,.14-38.52.26-86.03.26s-86.04-.12-86.04-.26,38.51-.26,86.04-.26,86.03.12,86.03.26Z"/>
      <path class="cls-20" d="m452.99,394.85c0,.14-23.54.26-52.57.26s-52.58-.12-52.58-.26,23.53-.26,52.58-.26,52.57.12,52.57.26Z"/>
      <path class="cls-20" d="m397.69,450.8c0,.14-11.77.26-26.29.26s-26.29-.12-26.29-.26,11.77-.26,26.29-.26,26.29.12,26.29.26Z"/>
      <path class="cls-20" d="m407.99,464.3c0,.14-6.91.26-15.43.26s-15.43-.12-15.43-.26,6.91-.26,15.43-.26,15.43.12,15.43.26Z"/>
      <path class="cls-20" d="m181.49,440.76c0,.14-10.75.26-24.02.26s-24.02-.12-24.02-.26,10.75-.26,24.02-.26,24.02.12,24.02.26Z"/>
      <path class="cls-20" d="m213.52,447.81c0,.14-7.46.26-16.65.26s-16.65-.12-16.65-.26,7.46-.26,16.65-.26,16.65.12,16.65.26Z"/>
      <path class="cls-20" d="m624.1,427.31c0,.14-30.4.26-67.89.26s-67.9-.12-67.9-.26,30.39-.26,67.9-.26,67.89.12,67.89.26Z"/>
      <path class="cls-20" d="m545.31,439.48c0,.14-8.46.26-18.89.26s-18.9-.12-18.9-.26,8.46-.26,18.9-.26,18.89.12,18.89.26Z"/>
      <path class="cls-20" d="m593.99,451.65c0,.14-14.34.26-32.02.26s-32.03-.12-32.03-.26,14.34-.26,32.03-.26,32.02.12,32.02.26Z"/>
      <path class="cls-20" d="m570.93,464.46c0,.14-4.59.26-10.25.26s-10.25-.12-10.25-.26,4.59-.26,10.25-.26,10.25.12,10.25.26Z"/>
      <path class="cls-20" d="m707.77,481.86c0,.14-42.44.26-94.78.26s-94.79-.12-94.79-.26,42.43-.26,94.79-.26,94.78.12,94.78.26Z"/>
      <path class="cls-20" d="m513.91,491.79c0,.14-10.38.26-23.19.26s-23.19-.12-23.19-.26,10.38-.26,23.19-.26,23.19.12,23.19.26Z"/>
      <g>
        <path class="cls-15" d="m334.98,164.81l.5-14.64-8.99-2.94c-.37-5-1.21-9.94-2.4-14.71l7.62-5.62-5.18-13.75-9.43.76c-2.25-4.45-4.89-8.68-7.85-12.65l4.88-8.15-10.04-10.71-8.43,4.31c-3.8-3.23-7.8-6.15-12.08-8.73l1.36-9.35-13.37-6.07-6.13,7.18c-4.67-1.51-9.5-2.65-14.51-3.4l-2.28-9.17-14.68-.5-2.9,8.99c-5.04.41-9.94,1.21-14.7,2.4l-5.66-7.58-13.75,5.14.76,9.43c-4.45,2.28-8.68,4.92-12.65,7.88l-8.11-4.88-10.75,10,4.31,8.46c-3.22,3.76-6.15,7.8-8.69,12.08l-9.35-1.4-6.11,13.37,7.22,6.13c-1.51,4.67-2.69,9.54-3.4,14.51l-9.21,2.31-.5,14.64,9.03,2.94c.37,5.04,1.21,9.94,2.4,14.7l-7.62,5.62,5.18,13.76,9.43-.76c2.25,4.45,4.89,8.68,7.85,12.65l-4.88,8.15,10.04,10.71,8.43-4.32c3.76,3.22,7.8,6.15,12.08,8.73l-1.4,9.35,13.37,6.07,6.16-7.18c4.67,1.51,9.5,2.65,14.51,3.4l2.28,9.17,14.68.5,2.9-8.99c5.04-.41,9.94-1.21,14.7-2.4l5.62,7.58,13.75-5.14-.72-9.42c4.45-2.28,8.64-4.93,12.65-7.89l8.11,4.88,10.75-10-4.31-8.46c3.22-3.76,6.15-7.8,8.69-12.08l9.35,1.4,6.11-13.37-7.22-6.13c1.51-4.67,2.69-9.5,3.4-14.51l9.17-2.32Zm-98.95,47.44c-32.07-1.1-57.18-27.99-56.08-60.06,1.1-32.11,27.99-57.22,60.06-56.12,32.07,1.1,57.18,27.99,56.08,60.1-1.1,32.07-27.99,57.18-60.06,56.08Z"/>
        <path class="cls-15" d="m585.59,116.39l3.69-3.45-1.48-2.91c1.13-1.31,2.13-2.72,3-4.17l3.23.49,2.09-4.62-2.48-2.11c.54-1.63.92-3.31,1.17-5l3.18-.8.16-5.06-3.11-1c-.14-1.71-.4-3.4-.82-5.07l2.61-1.95-1.78-4.74-3.24.26c-.77-1.51-1.67-2.96-2.71-4.37l1.68-2.79-3.46-3.7-2.9,1.49c-1.33-1.13-2.72-2.13-4.17-3l.47-3.23-4.61-2.1-2.11,2.48c-1.64-.53-3.32-.92-5.01-1.16l-.79-3.17-5.06-.18-1.01,3.12c-1.7.13-3.4.4-5.07.83l-1.94-2.62-4.75,1.77.27,3.25c-1.51.77-2.98,1.67-4.37,2.71l-2.81-1.68-3.69,3.45,1.48,2.92c-1.14,1.32-2.13,2.72-3,4.17l-3.23-.49-2.09,4.62,2.48,2.11c-.54,1.63-.92,3.31-1.17,5l-3.18.8-.16,5.06,3.11,1c.13,1.7.4,3.4.82,5.07l-2.62,1.94,1.78,4.74,3.25-.25c.77,1.51,1.67,2.96,2.71,4.37l-1.68,2.79,3.46,3.7,2.9-1.49c1.33,1.13,2.72,2.13,4.17,3l-.48,3.22,4.61,2.1,2.12-2.47c1.64.53,3.31.91,5.01,1.16l.79,3.17,5.06.18,1.01-3.12c1.7-.13,3.4-.4,5.07-.83l1.94,2.62,4.75-1.77-.27-3.25c1.51-.77,2.97-1.66,4.37-2.71l2.8,1.67Zm-26.32-21.32c-2.72-2.91-2.56-7.47.35-10.19,2.91-2.72,7.48-2.56,10.19.35,2.72,2.91,2.56,7.47-.35,10.19-2.91,2.72-7.47,2.56-10.19-.35Z"/>
        <path class="cls-15" d="m450.78,266.73l-11.52-7.96s0-.02,0-.03c-1.14-4.19-2.71-8.22-4.63-12l2.95-11.59-16.72-17.9-11.77,2.15c-3.64-2.17-7.55-4.02-11.65-5.44,0,0-.02,0-.03,0l-7.15-12.05-24.48-.84-7.96,11.52s-.03,0-.05.01c-4.18,1.14-8.21,2.71-11.99,4.63l-11.58-2.95-17.9,16.72,2.15,11.74s0,0,0,.01c-2.22,3.68-4.02,7.6-5.44,11.69l-12.04,7.15-.84,24.48,11.53,7.97c1.14,4.22,2.66,8.24,4.62,12.06t0,0l-2.94,11.55,16.72,17.9,11.69-2.14c3.69,2.18,7.61,4.03,11.75,5.45,0,0,0,0,.01,0l7.14,12.03,24.48.84,7.95-11.52c4.23-1.14,8.26-2.71,12.09-4.63,0,0,0,0,0,0l11.53,2.94,17.9-16.71-2.15-11.75c2.22-3.68,4.02-7.6,5.44-11.7,0,0,0,0,0,0l12.05-7.16.84-24.48Zm-76.28,37.21c-15.22-.52-27.1-13.3-26.58-28.47.52-15.22,13.25-27.1,28.47-26.58,15.22.52,27.1,13.25,26.58,28.47-.52,15.17-13.25,27.1-28.47,26.58Z"/>
        <path class="cls-15" d="m477.04,197.21s-.05,0-.08,0l-19.3-.66c-.8-.03-1.53-.46-1.94-1.15l-5.2-8.75c-2.76-1-5.49-2.27-8.12-3.76l-8.37,1.53c-.79.15-1.6-.12-2.14-.71l-13.18-14.11c-.55-.59-.76-1.41-.56-2.19l2.1-8.26c-1.28-2.62-2.35-5.41-3.19-8.32l-8.39-5.8c-.66-.45-1.04-1.22-1.01-2.02l.66-19.3c.03-.8.46-1.53,1.15-1.94l8.77-5.21c1.04-2.85,2.3-5.56,3.76-8.08l-1.54-8.39c-.14-.79.12-1.6.71-2.14l14.11-13.18c.59-.55,1.41-.76,2.19-.56l8.28,2.11c2.68-1.3,5.47-2.38,8.3-3.2l5.79-8.39c.45-.66,1.2-1.07,2.02-1.01l19.3.66c.8.03,1.53.46,1.94,1.15l5.21,8.77c2.77,1.01,5.47,2.27,8.05,3.76l8.42-1.54c.79-.14,1.6.12,2.14.71l13.18,14.11c.55.59.76,1.41.56,2.19l-2.11,8.29c1.3,2.68,2.38,5.47,3.2,8.3l8.39,5.79c.66.45,1.04,1.22,1.01,2.02l-.66,19.3c-.03.8-.46,1.53-1.15,1.94l-8.77,5.21c-1.04,2.84-2.3,5.55-3.75,8.07l1.54,8.4c.14.79-.12,1.6-.71,2.14l-14.11,13.18c-.59.55-1.41.76-2.19.56l-8.25-2.1c-2.72,1.31-5.52,2.39-8.34,3.2l-5.79,8.38c-.44.64-1.16,1.02-1.94,1.02Zm-17.93-5.32l16.73.57,5.54-8.02c.32-.46.79-.79,1.32-.93,3.08-.83,6.14-2,9.09-3.48,0,0,.01,0,.02,0,.49-.24,1.06-.32,1.63-.17l7.84,2,12.23-11.42-1.46-7.99c-.1-.56,0-1.15.3-1.64,1.61-2.68,2.98-5.62,4.07-8.73.18-.55.56-1.02,1.05-1.31l8.38-4.98.57-16.73-8.03-5.54c-.42-.29-.73-.71-.9-1.19-.02-.06-.04-.12-.05-.19-.84-3.07-2.01-6.09-3.47-8.98-.26-.51-.32-1.09-.18-1.65l2.01-7.89-11.42-12.23-8.01,1.47c-.56.1-1.14,0-1.63-.29-2.79-1.66-5.73-3.04-8.74-4.09-.17-.06-.34-.14-.49-.23-.32-.2-.6-.48-.79-.8l-4.98-8.39-16.73-.57-5.54,8.03c-.33.48-.82.82-1.39.95-3.09.85-6.1,2.01-8.97,3.47-.51.26-1.09.32-1.65.18l-7.88-2.01-12.23,11.42,1.46,7.99c.09.5.02,1.02-.21,1.48-.03.06-.07.13-.11.19-1.62,2.69-2.99,5.63-4.07,8.76-.18.52-.54.97-1.02,1.25l-8.39,4.98-.57,16.73,8.03,5.55c.46.32.79.78.93,1.32.87,3.2,2.03,6.25,3.47,9.05.08.16.15.33.19.51.09.38.09.77,0,1.15l-2,7.86,11.42,12.23,7.95-1.46c.56-.1,1.13,0,1.62.29,2.84,1.68,5.79,3.05,8.79,4.08.54.17,1.01.54,1.31,1.04l4.97,8.38Zm27.62-105.66h.01-.01Zm-17.29,84.52c-.41,0-.82,0-1.24-.02-19.44-.67-34.72-17.02-34.05-36.47.67-19.44,17.05-34.71,36.47-34.05,19.44.67,34.72,17.02,34.05,36.47-.32,9.41-4.29,18.13-11.17,24.56-6.59,6.16-15.09,9.51-24.05,9.51Zm-.04-65.85c-16.38,0-29.98,13.03-30.54,29.53-.58,16.85,12.66,31.02,29.51,31.6,8.16.27,15.95-2.64,21.92-8.22,5.97-5.58,9.4-13.14,9.68-21.29.58-16.85-12.66-31.02-29.51-31.6-.35-.01-.71-.02-1.06-.02Z"/>
        <g>
          <polygon class="cls-8" points="521.49 58.33 513.5 56.18 511.35 48.19 514.48 45.06 517.78 51.9 524.62 55.2 521.49 58.33"/>
          <path class="cls-8" d="m521.99,52.98c1.46-1.46,1.46-3.83,0-5.29-1.46-1.46-3.82-1.45-5.28.01l3.98-5.97,5.33,2.7,1.17,5.6-5.2,2.94Z"/>
          <path class="cls-3" d="m513.85,45.69l5.86-5.86,7.99,2.15,2.15,7.99-5.86,5.86-7.99-2.15-2.15-7.99Zm10.64,4.79c1.46-1.46,1.46-3.83,0-5.29-1.46-1.46-3.82-1.45-5.28.01-1.46,1.46-1.46,3.81,0,5.26,1.46,1.46,3.82,1.47,5.28.01Z"/>
        </g>
        <g>
          <polygon class="cls-8" points="194.74 271.6 199.03 270.45 200.18 266.16 198.5 264.48 196.73 268.15 193.06 269.92 194.74 271.6"/>
          <path class="cls-8" d="m194.47,268.73c-.78-.78-.78-2.06,0-2.84s2.05-.78,2.83,0l-2.13-3.2-2.86,1.45-.63,3.01,2.79,1.58Z"/>
          <path class="cls-3" d="m198.84,264.82l-3.14-3.14-4.29,1.15-1.15,4.29,3.14,3.14,4.29-1.15,1.15-4.29Zm-5.71,2.57c-.78-.78-.78-2.06,0-2.84s2.05-.78,2.83,0,.78,2.04,0,2.83-2.05.79-2.83,0Z"/>
        </g>
        <g>
          <path class="cls-3" d="m179.29,36.42l3.56,3.56c.93.93,2.44.93,3.37,0h0c.93-.93.93-2.44,0-3.37l-3.56-3.56c-.93-.93-2.44-.93-3.37,0h0c-.93.93-.93,2.44,0,3.37Z"/>
          <path class="cls-8" d="m176.78,27.55c2.74-.99,5.72.3,6.64,2.88.92,2.58-.55,5.46-3.29,6.45-2.74.99-5.72-.3-6.64-2.88-.93-2.58.55-5.46,3.29-6.45Z"/>
          <rect class="cls-3" x="177.7" y="26.59" width="1.53" height="11.26" transform="translate(208.47 211.06) rotate(-109.76)"/>
        </g>
      </g>
      <polygon class="cls-16" points="505.14 427.04 528.76 418.93 553.33 414.39 566.93 414.39 620.13 395.79 650.9 393.88 676.91 383.38 711.26 385.29 711.26 427.04 505.14 427.04"/>
      <polygon class="cls-16" points="235.1 419.52 207.51 404.7 178.8 396.42 162.91 396.42 100.76 362.43 64.8 358.94 34.42 339.76 0 357 .62 419.52 235.1 419.52"/>
      <polygon class="cls-16" points="471.27 491.36 482.25 484.91 488.93 483.24 498.94 487.3 502.76 489.69 507.06 491.36 471.27 491.36"/>
      <polygon class="cls-16" points="526.02 481.97 534.84 476.48 545.82 475.05 550.11 472.43 586.13 462.65 594.01 456.68 631.7 453.82 665.57 470.52 686.09 476.48 690.38 481.97 526.02 481.97"/>
      <polygon class="cls-16" points="37.07 464.64 43.86 460.42 52.29 459.32 55.59 457.3 83.28 449.79 89.33 445.2 118.29 443 144.33 455.84 160.1 460.42 163.4 464.64 37.07 464.64"/>
      <text class="cls-1" transform="translate(146.28 83.88)"><tspan x="0" y="0">BRIDGE UNDER </tspan><tspan class="cls-11" x="236.19" y="0">C</tspan><tspan x="256.32" y="0">ON</tspan><tspan class="cls-2" x="302.55" y="0">S</tspan><tspan x="321.42" y="0">TRU</tspan><tspan class="cls-17" x="383.25" y="0">C</tspan><tspan x="403.5" y="0">TION</tspan></text>
      <rect class="cls-19" x="21.95" y="313.29" width="686.49" height="4.87"/>
      <path class="cls-10" d="m178.14,246.57v-53.63l-2.01-2.79v-44.47l-1.4-3.73v-34.8h2.65v-2.24h-1.64v-4.85h-3v-5.83h-2.27v5.83h-3.09v4.85h-1.59v2.24h2.9v34.8l-1.4,3.73v44.47l-2.01,2.79v53.63l-4.11,4.11v64.05h21.07v-64.05l-4.11-4.11Z"/>
      <path class="cls-4" d="m178.14,246.57v-53.63l-2.01-2.79v-44.47l-1.4-3.73v-34.8h2.65v-2.24h-1.64v-4.85h-3v-5.83h-2.27v5.83h-3.09v4.85h-1.59v2.24h2.9v34.8l-1.4,3.73v44.47l-2.01,2.79v53.63l-4.11,4.11v64.05h21.07v-64.05l-4.11-4.11Z"/>
      <g>
        <path class="cls-18" d="m182.95,208.77v.77s-3.09.68-3.73,4.2c-.62,3.41-.42,11.47-.42,11.47h-2.81v-16.44h6.95Z"/>
        <g class="cls-12">
          <path class="cls-18" d="m182.95,208.77v.77s-3.09.68-3.73,4.2c-.62,3.41-.42,11.47-.42,11.47h-2.81v-16.44h6.95Z"/>
        </g>
        <g class="cls-13">
          <rect class="cls-18" x="179.03" y="208.77" width="3.92" height=".77"/>
        </g>
      </g>
      <g>
        <path class="cls-18" d="m183.54,265.85v.77s-3.09.69-3.73,4.2c-.62,3.41-.42,11.47-.42,11.47h-2.81v-16.44h6.95Z"/>
        <g class="cls-12">
          <path class="cls-18" d="m183.54,265.85v.77s-3.09.69-3.73,4.2c-.62,3.41-.42,11.47-.42,11.47h-2.81v-16.44h6.95Z"/>
        </g>
        <g class="cls-13">
          <rect class="cls-18" x="179.62" y="265.85" width="3.92" height=".77"/>
        </g>
      </g>
      <path class="cls-9" d="m528.67,109.26s-.03.5-.12,1.48c-.1.98-.25,2.44-.44,4.33-.41,3.81-1.05,9.42-2.07,16.62-.51,3.6-1.13,7.6-1.89,11.96-.75,4.36-1.5,9.12-2.63,14.16-1.14,5.04-2.49,10.41-4.38,15.96-.86,2.81-2,5.6-3.08,8.5-.54,1.45-1.21,2.87-1.83,4.33-.65,1.45-1.21,2.96-1.96,4.41-5.55,11.77-13.04,24.01-22.57,36-.59.75-1.16,1.53-1.78,2.27-.63.73-1.26,1.47-1.89,2.21-1.27,1.48-2.54,2.97-3.83,4.47-1.25,1.53-2.67,2.94-4.04,4.4-1.38,1.46-2.78,2.92-4.18,4.4-5.69,5.84-11.92,11.48-18.66,16.84-6.74,5.35-14,10.4-21.72,15.04-7.73,4.64-15.96,8.79-24.57,12.48-8.64,3.63-17.66,6.77-27.03,9.18-4.68,1.22-9.45,2.25-14.29,3.05-2.42.4-4.86.75-7.32.98-1.24.09-2.45.26-3.7.29-1.24.06-2.49.06-3.73.04-4.98-.11-9.9-.59-14.77-1.2-4.86-.74-9.63-1.75-14.33-2.92-9.4-2.32-18.45-5.4-27.1-9-8.64-3.62-16.89-7.76-24.61-12.42-7.7-4.68-14.93-9.77-21.64-15.17-1.68-1.35-3.26-2.78-4.89-4.16-.81-.69-1.61-1.38-2.41-2.07-.8-.69-1.54-1.44-2.3-2.16-1.52-1.45-3.03-2.88-4.52-4.31-1.48-1.44-2.85-2.97-4.27-4.44-1.4-1.48-2.8-2.95-4.18-4.4-1.34-1.49-2.62-3.03-3.91-4.52-1.28-1.5-2.56-3-3.82-4.48-1.19-1.54-2.37-3.07-3.54-4.58-9.32-12.14-16.68-24.48-21.86-36.43-.64-1.49-1.28-2.97-1.91-4.43-.59-1.47-1.12-2.95-1.68-4.4-1.15-2.88-1.99-5.78-2.93-8.55-1.67-5.62-3.01-10.99-4.02-16.06-1.94-10.16-3.17-18.97-4.33-26.15-1.11-7.18-1.98-12.76-2.57-16.55-.29-1.89-.51-3.33-.66-4.31-.14-.97-.21-1.47-.21-1.47,0,0,.1.49.26,1.46.16.98.4,2.41.71,4.3.61,3.79,1.51,9.36,2.67,16.53,1.18,7.17,2.45,15.99,4.41,26.13,1.02,5.06,2.37,10.42,4.05,16.02.95,2.77,1.79,5.66,2.94,8.53.56,1.44,1.09,2.91,1.68,4.38.63,1.45,1.27,2.93,1.91,4.42,5.19,11.91,12.56,24.21,21.87,36.31,1.17,1.51,2.35,3.03,3.54,4.57,1.26,1.48,2.54,2.96,3.82,4.46,1.29,1.49,2.57,3.02,3.91,4.51,1.38,1.45,2.77,2.92,4.18,4.39,1.42,1.46,2.79,2.99,4.27,4.43,1.5,1.42,3,2.85,4.52,4.3.77.71,1.5,1.46,2.3,2.15.8.69,1.6,1.38,2.4,2.07,1.62,1.37,3.2,2.8,4.88,4.14,6.69,5.38,13.91,10.45,21.59,15.11,7.7,4.64,15.93,8.76,24.55,12.37,8.63,3.58,17.66,6.65,27.03,8.97,4.68,1.16,9.45,2.16,14.27,2.9,4.85.61,9.77,1.08,14.71,1.2,1.24.02,2.47.02,3.7-.04,1.22-.03,2.46-.2,3.68-.29,2.44-.24,4.87-.59,7.29-.98,4.82-.8,9.58-1.83,14.25-3.04,9.35-2.4,18.35-5.54,26.97-9.15,8.59-3.67,16.81-7.81,24.52-12.43,7.71-4.62,14.96-9.65,21.68-14.99,6.72-5.34,12.95-10.97,18.63-16.79,1.4-1.47,2.79-2.94,4.18-4.39,1.37-1.46,2.78-2.87,4.04-4.39,1.29-1.5,2.56-2.98,3.83-4.45.63-.74,1.26-1.47,1.89-2.2.62-.74,1.18-1.51,1.78-2.26,9.52-11.95,17.01-24.15,22.57-35.89.75-1.44,1.31-2.95,1.96-4.39.61-1.46,1.29-2.88,1.83-4.32,1.08-2.9,2.23-5.68,3.09-8.48,1.91-5.53,3.27-10.89,4.41-15.92,1.15-5.03,1.9-9.78,2.67-14.14.78-4.36,1.41-8.35,1.93-11.95,1.05-7.2,1.72-12.8,2.16-16.61.22-1.9.38-3.34.49-4.33.11-.98.18-1.47.18-1.47Z"/>
      <path class="cls-9" d="m167.81,109.26s0,.21-.03.62c-.04.43-.09,1.03-.16,1.82-.15,1.6-.39,3.95-.73,6.97-.7,6.05-1.75,14.8-3.62,25.53-1.71,10.73-4.27,23.55-9.57,36.98-2.65,6.69-5.76,13.62-9.66,20.42-1.82,3.48-4.04,6.8-6.15,10.25-1.07,1.72-2.3,3.35-3.45,5.05-.59.84-1.17,1.69-1.76,2.54l-.89,1.27-.95,1.23c-1.27,1.64-2.54,3.28-3.79,4.9-.63.81-1.24,1.63-1.89,2.42-.66.77-1.33,1.54-1.99,2.31-2.65,3.06-5.18,6.15-7.95,8.93-5.32,5.76-10.78,11.01-16.25,15.7-5.45,4.71-10.92,8.85-16.21,12.47-5.29,3.61-10.36,6.78-15.13,9.4-9.52,5.3-17.64,8.79-23.31,11.01-2.84,1.09-5.06,1.91-6.58,2.42-.75.25-1.32.45-1.73.58-.39.13-.59.18-.59.18,0,0,.19-.09.58-.23.4-.15.97-.36,1.71-.63,1.51-.54,3.71-1.39,6.54-2.51,5.63-2.28,13.72-5.81,23.2-11.15,4.75-2.64,9.8-5.82,15.07-9.44,5.26-3.63,10.71-7.77,16.14-12.48,5.45-4.69,10.89-9.93,16.19-15.68,2.76-2.78,5.28-5.86,7.92-8.92.66-.77,1.32-1.54,1.98-2.31.64-.79,1.25-1.61,1.88-2.41,1.25-1.62,2.52-3.25,3.78-4.89l.95-1.23.88-1.27c.59-.85,1.17-1.69,1.76-2.53,1.15-1.69,2.37-3.32,3.44-5.04,2.11-3.44,4.32-6.75,6.14-10.22,3.89-6.78,7-13.68,9.65-20.35,5.31-13.38,7.9-26.14,9.66-36.87,1.92-10.71,3.02-19.45,3.78-25.49.36-3.01.64-5.35.83-6.96.09-.78.16-1.38.21-1.81.05-.41.09-.62.09-.62Z"/>
      <g>
        <rect class="cls-18" x="172.96" y="144.79" width="38.19" height="11.76"/>
        <g class="cls-5">
          <rect class="cls-18" x="172.96" y="144.79" width="38.19" height="11.76"/>
        </g>
        <g class="cls-13">
          <rect class="cls-18" x="180.07" y="147.2" width="1.93" height="7.34"/>
        </g>
        <g class="cls-13">
          <rect class="cls-18" x="183.27" y="147.2" width="1.93" height="7.34"/>
        </g>
        <g class="cls-13">
          <rect class="cls-18" x="186.46" y="147.2" width="1.93" height="7.34"/>
        </g>
        <g class="cls-13">
          <rect class="cls-18" x="189.66" y="147.2" width="1.93" height="7.34"/>
        </g>
        <g class="cls-13">
          <rect class="cls-18" x="192.86" y="147.2" width="1.93" height="7.34"/>
        </g>
        <g class="cls-13">
          <rect class="cls-18" x="196.05" y="147.2" width="1.93" height="7.34"/>
        </g>
        <g class="cls-13">
          <rect class="cls-18" x="199.25" y="147.2" width="1.93" height="7.34"/>
        </g>
        <g class="cls-13">
          <rect class="cls-18" x="202.45" y="147.2" width="1.93" height="7.34"/>
        </g>
        <g class="cls-13">
          <rect class="cls-18" x="205.43" y="147.2" width="1.93" height="7.34"/>
        </g>
        <g class="cls-13">
          <rect class="cls-18" x="176.87" y="147.2" width="1.93" height="7.34"/>
        </g>
      </g>
      <g>
        <rect class="cls-18" x="172.96" y="197.01" width="38.19" height="11.76"/>
        <g class="cls-12">
          <rect class="cls-18" x="172.96" y="197.01" width="38.19" height="11.76"/>
        </g>
        <g class="cls-13">
          <rect class="cls-18" x="180.07" y="199.42" width="1.93" height="7.34"/>
        </g>
        <g class="cls-13">
          <rect class="cls-18" x="183.27" y="199.42" width="1.93" height="7.34"/>
        </g>
        <g class="cls-13">
          <rect class="cls-18" x="186.46" y="199.42" width="1.93" height="7.34"/>
        </g>
        <g class="cls-13">
          <rect class="cls-18" x="189.66" y="199.42" width="1.93" height="7.34"/>
        </g>
        <g class="cls-13">
          <rect class="cls-18" x="192.86" y="199.42" width="1.93" height="7.34"/>
        </g>
        <g class="cls-13">
          <rect class="cls-18" x="196.05" y="199.42" width="1.93" height="7.34"/>
        </g>
        <g class="cls-13">
          <rect class="cls-18" x="199.25" y="199.42" width="1.93" height="7.34"/>
        </g>
        <g class="cls-13">
          <rect class="cls-18" x="202.45" y="199.42" width="1.93" height="7.34"/>
        </g>
        <g class="cls-13">
          <rect class="cls-18" x="205.43" y="199.42" width="1.93" height="7.34"/>
        </g>
        <g class="cls-13">
          <rect class="cls-18" x="176.87" y="199.42" width="1.93" height="7.34"/>
        </g>
      </g>
      <g>
        <rect class="cls-18" x="172.96" y="254.08" width="38.19" height="11.76"/>
        <g class="cls-12">
          <rect class="cls-18" x="172.96" y="254.08" width="38.19" height="11.76"/>
        </g>
        <g class="cls-13">
          <rect class="cls-18" x="180.07" y="256.5" width="1.93" height="7.34"/>
        </g>
        <g class="cls-13">
          <rect class="cls-18" x="183.27" y="256.5" width="1.93" height="7.34"/>
        </g>
        <g class="cls-13">
          <rect class="cls-18" x="186.46" y="256.5" width="1.93" height="7.34"/>
        </g>
        <g class="cls-13">
          <rect class="cls-18" x="189.66" y="256.5" width="1.93" height="7.34"/>
        </g>
        <g class="cls-13">
          <rect class="cls-18" x="192.86" y="256.5" width="1.93" height="7.34"/>
        </g>
        <g class="cls-13">
          <rect class="cls-18" x="196.05" y="256.5" width="1.93" height="7.34"/>
        </g>
        <g class="cls-13">
          <rect class="cls-18" x="199.25" y="256.5" width="1.93" height="7.34"/>
        </g>
        <g class="cls-13">
          <rect class="cls-18" x="202.45" y="256.5" width="1.93" height="7.34"/>
        </g>
        <g class="cls-13">
          <rect class="cls-18" x="205.43" y="256.5" width="1.93" height="7.34"/>
        </g>
        <g class="cls-13">
          <rect class="cls-18" x="176.87" y="256.5" width="1.93" height="7.34"/>
        </g>
      </g>
      <g>
        <path class="cls-19" d="m220.59,246.57v-53.63l-2.01-2.79v-44.47l-1.4-3.73v-35.62h-6.03v35.62l-1.4,3.73v44.47l-2.01,2.79v53.63l-4.11,4.11v64.05h21.07v-64.05l-4.11-4.11Z"/>
        <rect class="cls-19" x="208.25" y="104.91" width="11.59" height="2.24"/>
        <rect class="cls-19" x="209.84" y="100.06" width="8.36" height="5.53"/>
        <rect class="cls-19" x="212.93" y="94.23" width="2.27" height="6.59"/>
      </g>
      <g>
        <rect class="cls-18" x="172.96" y="109.26" width="38.19" height="11.76"/>
        <g class="cls-12">
          <rect class="cls-18" x="172.96" y="109.26" width="38.19" height="11.76"/>
        </g>
        <g class="cls-13">
          <rect class="cls-18" x="180.07" y="111.68" width="1.93" height="7.34"/>
        </g>
        <g class="cls-13">
          <rect class="cls-18" x="183.27" y="111.68" width="1.93" height="7.34"/>
        </g>
        <g class="cls-13">
          <rect class="cls-18" x="186.46" y="111.68" width="1.93" height="7.34"/>
        </g>
        <g class="cls-13">
          <rect class="cls-18" x="189.66" y="111.68" width="1.93" height="7.34"/>
        </g>
        <g class="cls-13">
          <rect class="cls-18" x="192.86" y="111.68" width="1.93" height="7.34"/>
        </g>
        <g class="cls-13">
          <rect class="cls-18" x="196.05" y="111.68" width="1.93" height="7.34"/>
        </g>
        <g class="cls-13">
          <rect class="cls-18" x="199.25" y="111.68" width="1.93" height="7.34"/>
        </g>
        <g class="cls-13">
          <rect class="cls-18" x="202.45" y="111.68" width="1.93" height="7.34"/>
        </g>
        <g class="cls-13">
          <rect class="cls-18" x="205.43" y="111.68" width="1.93" height="7.34"/>
        </g>
        <g class="cls-13">
          <rect class="cls-18" x="176.87" y="111.68" width="1.93" height="7.34"/>
        </g>
      </g>
      <path class="cls-9" d="m210.54,107.16s-.02.25-.09.73c-.07.5-.18,1.21-.31,2.14-.29,1.9-.71,4.66-1.25,8.22-1.12,7.13-2.65,17.47-4.75,30.2-1.07,6.36-2.45,13.32-4.56,20.62-2.1,7.3-4.9,14.94-8.47,22.71-3.59,7.76-8.07,15.55-13.17,23.32-1.33,1.91-2.66,3.83-4.01,5.78-.65.99-1.39,1.92-2.12,2.86-.73.94-1.46,1.89-2.2,2.84-2.85,3.87-6.14,7.47-9.33,11.23-.78.95-1.65,1.82-2.49,2.72-.84.89-1.69,1.77-2.52,2.66-.84.88-1.67,1.76-2.51,2.64-.83.88-1.66,1.76-2.53,2.58-3.43,3.37-6.91,6.58-10.45,9.58-7.08,6.03-14.34,11.33-21.56,15.91-14.43,9.18-28.6,15.46-40.82,19.62-12.23,4.18-22.5,6.34-29.63,7.48-3.57.57-6.36.87-8.25,1.04-.95.08-1.67.13-2.16.15-.49.02-.74.02-.74.02,0,0,.25-.03.73-.07.5-.05,1.22-.12,2.15-.2,1.89-.2,4.67-.54,8.23-1.13,7.11-1.19,17.35-3.4,29.54-7.62,12.18-4.2,26.3-10.5,40.68-19.68,7.19-4.58,14.43-9.87,21.48-15.89,3.54-3,7-6.21,10.42-9.56.87-.82,1.7-1.69,2.53-2.57.83-.87,1.66-1.75,2.5-2.63.84-.88,1.68-1.76,2.52-2.65.84-.89,1.71-1.76,2.49-2.71,3.18-3.75,6.46-7.34,9.31-11.2.73-.95,1.46-1.89,2.19-2.83.73-.94,1.46-1.87,2.12-2.85,1.35-1.94,2.68-3.86,4.01-5.76,5.09-7.74,9.57-15.51,13.16-23.24,3.57-7.74,6.38-15.35,8.49-22.63,2.13-7.28,3.52-14.21,4.61-20.56,2.15-12.73,3.73-23.05,4.91-30.17.58-3.55,1.04-6.31,1.35-8.2.16-.93.28-1.64.36-2.13.08-.48.14-.72.14-.72Z"/>
      <path class="cls-9" d="m571.4,107.16s-.06.5-.2,1.47c-.15.98-.37,2.41-.65,4.3-.59,3.78-1.45,9.35-2.56,16.51-1.15,7.17-2.39,15.95-4.31,26.08-1.01,5.06-2.33,10.41-3.99,16.02-.46,1.39-.92,2.8-1.39,4.23-.24.71-.46,1.44-.72,2.15-.27.71-.54,1.43-.81,2.15-.55,1.44-1.1,2.91-1.66,4.39-.63,1.45-1.26,2.93-1.9,4.42-5.16,11.92-12.46,24.24-21.74,36.36-1.17,1.51-2.34,3.03-3.53,4.57-1.22,1.51-2.52,2.97-3.8,4.47-1.29,1.5-2.58,3-3.89,4.52-1.38,1.45-2.77,2.92-4.17,4.39-5.49,6-11.66,11.7-18.28,17.16-13.25,10.92-28.71,20.51-45.86,27.94-8.58,3.69-17.57,6.87-26.9,9.33-4.66,1.24-9.41,2.3-14.23,3.16-2.41.42-4.84.8-7.28,1.11-2.45.28-4.9.6-7.4.58-4.96.02-9.89-.3-14.75-.96-4.86-.66-9.62-1.71-14.29-2.9-9.36-2.37-18.37-5.48-26.99-9.1-8.61-3.63-16.8-7.82-24.52-12.43-3.89-2.26-7.57-4.76-11.23-7.2-1.78-1.29-3.56-2.56-5.32-3.84-.89-.62-1.75-1.28-2.59-1.96-.85-.67-1.69-1.34-2.53-2-3.43-2.59-6.54-5.48-9.73-8.18-1.54-1.42-3.03-2.86-4.53-4.28-.75-.71-1.49-1.42-2.24-2.12-.74-.7-1.42-1.47-2.14-2.19-1.41-1.47-2.8-2.93-4.19-4.37-.69-.73-1.39-1.43-2.06-2.17-.65-.75-1.3-1.5-1.95-2.24-2.58-2.98-5.17-5.88-7.47-8.93-9.47-11.98-16.99-24.14-22.67-35.82-5.62-11.7-9.6-22.81-12.16-32.8-2.63-9.98-3.9-18.79-4.95-25.96-1.01-7.18-1.65-12.78-2.06-16.58-.19-1.89-.34-3.34-.44-4.32-.09-.97-.12-1.48-.12-1.48,0,0,.07.5.18,1.47.11.98.28,2.42.49,4.32.44,3.79,1.11,9.38,2.16,16.56,1.08,7.16,2.38,15.96,5.04,25.92,2.58,9.96,6.58,21.04,12.21,32.71,5.68,11.64,13.21,23.77,22.67,35.71,2.29,3.05,4.88,5.93,7.46,8.9.65.74,1.29,1.49,1.94,2.24.66.74,1.37,1.44,2.06,2.17,1.38,1.44,2.78,2.9,4.18,4.36.71.72,1.39,1.48,2.13,2.19.74.7,1.49,1.41,2.23,2.11,1.5,1.41,2.99,2.85,4.53,4.26,3.18,2.7,6.29,5.57,9.71,8.16.84.66,1.68,1.33,2.53,1.99.84.68,1.7,1.33,2.58,1.95,1.76,1.27,3.53,2.54,5.31,3.82,3.65,2.43,7.32,4.92,11.2,7.17,7.7,4.59,15.87,8.77,24.46,12.39,8.59,3.61,17.58,6.71,26.92,9.07,4.66,1.19,9.41,2.22,14.24,2.88,4.83.66,9.74.98,14.68.96,2.45.02,4.91-.3,7.34-.58,2.43-.3,4.85-.69,7.25-1.1,4.8-.86,9.53-1.92,14.19-3.15,9.31-2.45,18.27-5.62,26.83-9.3,17.11-7.4,32.54-16.96,45.76-27.84,6.61-5.44,12.76-11.12,18.25-17.1,1.4-1.47,2.79-2.93,4.16-4.38,1.3-1.51,2.6-3.02,3.88-4.51,1.27-1.5,2.58-2.95,3.8-4.46,1.19-1.53,2.36-3.05,3.53-4.55,9.28-12.08,16.58-24.37,21.75-36.25.64-1.49,1.28-2.95,1.91-4.4.56-1.48,1.12-2.93,1.67-4.37.27-.72.54-1.44.81-2.15.26-.72.48-1.44.72-2.15.47-1.42.94-2.83,1.39-4.21,1.67-5.59,3-10.94,4.02-15.98,1.95-10.11,3.22-18.9,4.39-26.06,1.15-7.16,2.05-12.71,2.66-16.49.31-1.88.54-3.31.7-4.29.16-.97.26-1.46.26-1.46Z"/>
      <g>
        <path class="cls-9" d="m47.36,314.73c-.14,0-.26-3.09-.26-6.89s.12-6.89.26-6.89.26,3.09.26,6.89-.12,6.89-.26,6.89Z"/>
        <path class="cls-9" d="m56.02,314.73c-.14,0-.26-3.33-.26-7.43s.12-7.43.26-7.43.26,3.32.26,7.43-.12,7.43-.26,7.43Z"/>
        <path class="cls-9" d="m63.92,314.73c-.14,0-.26-7.8-.26-17.41s.12-17.41.26-17.41.26,7.79.26,17.41-.12,17.41-.26,17.41Z"/>
        <path class="cls-9" d="m71.58,314.73c-.14,0-.26-4.26-.26-9.52s.12-9.52.26-9.52.26,4.26.26,9.52-.12,9.52-.26,9.52Z"/>
        <path class="cls-9" d="m80.26,314.73c-.14,0-.26-9.83-.26-21.94s.12-21.95.26-21.95.26,9.82.26,21.95-.12,21.94-.26,21.94Z"/>
        <path class="cls-9" d="m88.48,314.73c-.14,0-.26-5.51-.26-12.29s.12-12.3.26-12.3.26,5.5.26,12.3-.12,12.29-.26,12.29Z"/>
        <path class="cls-9" d="m97.07,314.73c-.14,0-.26-12.78-.26-28.55s.12-28.55.26-28.55.26,12.78.26,28.55-.12,28.55-.26,28.55Z"/>
        <path class="cls-9" d="m105.65,314.73c-.14,0-.26-7.56-.26-16.88s.12-16.88.26-16.88.26,7.56.26,16.88-.12,16.88-.26,16.88Z"/>
        <path class="cls-9" d="m114.24,314.73c-.14,0-.26-16.23-.26-36.25s.12-36.25.26-36.25.26,16.23.26,36.25-.12,36.25-.26,36.25Z"/>
        <path class="cls-9" d="m122.46,314.73c-.14,0-.26-9.83-.26-21.94s.12-21.95.26-21.95.26,9.82.26,21.95-.12,21.94-.26,21.94Z"/>
        <path class="cls-9" d="m130.31,314.73c-.14,0-.26-20.89-.26-46.65s.12-46.66.26-46.66.26,20.88.26,46.66-.12,46.65-.26,46.65Z"/>
        <path class="cls-9" d="m139.81,314.73c-.14,0-.26-12.78-.26-28.55s.12-28.55.26-28.55.26,12.78.26,28.55-.12,28.55-.26,28.55Z"/>
        <path class="cls-9" d="m147.67,314.73c-.14,0-.26-26.52-.26-59.24s.12-59.24.26-59.24.26,26.52.26,59.24-.12,59.24-.26,59.24Z"/>
        <path class="cls-9" d="m156.89,314.73c-.14,0-.26-16.43-.26-36.7s.12-36.7.26-36.7.26,16.43.26,36.7-.12,36.7-.26,36.7Z"/>
        <path class="cls-9" d="m165.93,314.73c-.14,0-.26-40.81-.26-91.14s.12-91.15.26-91.15.26,40.8.26,91.15-.12,91.14-.26,91.14Z"/>
        <path class="cls-9" d="m174.98,314.73c-.14,0-.26-21.37-.26-47.72s.12-47.72.26-47.72.26,21.36.26,47.72-.12,47.72-.26,47.72Z"/>
        <path class="cls-9" d="m184.03,314.73c-.14,0-.26-33.66-.26-75.17s.12-75.18.26-75.18.26,33.65.26,75.18-.12,75.17-.26,75.17Z"/>
        <path class="cls-9" d="m193.07,314.73c-.14,0-.26-27.71-.26-61.88s.12-61.89.26-61.89.26,27.7.26,61.89-.12,61.88-.26,61.88Z"/>
        <path class="cls-9" d="m202.11,314.73c-.14,0-.26-35.24-.26-78.69s.12-78.7.26-78.7.26,35.23.26,78.7-.12,78.69-.26,78.69Z"/>
        <path class="cls-9" d="m220.2,314.73c-.14,0-.26-18.01-.26-40.22s.12-40.22.26-40.22.26,18.01.26,40.22-.12,40.22-.26,40.22Z"/>
        <path class="cls-9" d="m229.25,314.73c-.14,0-.26-15.89-.26-35.5s.12-35.5.26-35.5.26,15.89.26,35.5-.12,35.5-.26,35.5Z"/>
        <path class="cls-9" d="m238.3,314.73c-.14,0-.26-26.52-.26-59.24s.12-59.24.26-59.24.26,26.52.26,59.24-.12,59.24-.26,59.24Z"/>
        <path class="cls-9" d="m247.34,314.73c-.14,0-.26-12.22-.26-27.28s.12-27.28.26-27.28.26,12.21.26,27.28-.12,27.28-.26,27.28Z"/>
        <path class="cls-9" d="m256.39,314.73c-.14,0-.26-20.32-.26-45.38s.12-45.39.26-45.39.26,20.32.26,45.39-.12,45.38-.26,45.38Z"/>
        <path class="cls-9" d="m265.43,314.73c-.14,0-.26-9.29-.26-20.75s.12-20.76.26-20.76.26,9.29.26,20.76-.12,20.75-.26,20.75Z"/>
        <path class="cls-9" d="m274.48,316.47c-.14,0-.26-16.43-.26-36.7s.12-36.7.26-36.7.26,16.43.26,36.7-.12,36.7-.26,36.7Z"/>
        <path class="cls-9" d="m283.52,314.73c-.14,0-.26-6.92-.26-15.46s.12-15.46.26-15.46.26,6.92.26,15.46-.12,15.46-.26,15.46Z"/>
        <path class="cls-9" d="m292.57,314.73c-.14,0-.26-11.88-.26-26.53s.12-26.53.26-26.53.26,11.88.26,26.53-.12,26.53-.26,26.53Z"/>
        <path class="cls-9" d="m301.61,314.73c-.14,0-.26-4.91-.26-10.97s.12-10.97.26-10.97.26,4.91.26,10.97-.12,10.97-.26,10.97Z"/>
        <path class="cls-9" d="m310.66,314.73c-.14,0-.26-9.29-.26-20.75s.12-20.76.26-20.76.26,9.29.26,20.76-.12,20.75-.26,20.75Z"/>
        <path class="cls-9" d="m319.7,314.73c-.14,0-.26-3.78-.26-8.44s.12-8.44.26-8.44.26,3.78.26,8.44-.12,8.44-.26,8.44Z"/>
        <path class="cls-9" d="m328.75,314.73c-.14,0-.26-6.92-.26-15.46s.12-15.46.26-15.46.26,6.92.26,15.46-.12,15.46-.26,15.46Z"/>
        <path class="cls-9" d="m339.18,314.73c-.14,0-.26-2.94-.26-6.57s.12-6.57.26-6.57.26,2.94.26,6.57-.12,6.57-.26,6.57Z"/>
        <path class="cls-9" d="m350.65,314.73c-.14,0-.26-4.91-.26-10.97s.12-10.97.26-10.97.26,4.91.26,10.97-.12,10.97-.26,10.97Z"/>
        <path class="cls-9" d="m362.12,314.73c-.14,0-.26-2.94-.26-6.57s.12-6.57.26-6.57.26,2.94.26,6.57-.12,6.57-.26,6.57Z"/>
        <path class="cls-9" d="m373.59,314.73c-.14,0-.26-3.36-.26-7.5s.12-7.5.26-7.5.26,3.36.26,7.5-.12,7.5-.26,7.5Z"/>
        <path class="cls-9" d="m385.06,314.73c-.14,0-.26-2.94-.26-6.57s.12-6.57.26-6.57.26,2.94.26,6.57-.12,6.57-.26,6.57Z"/>
        <path class="cls-9" d="m396.53,314.73c-.14,0-.26-4.65-.26-10.38s.12-10.38.26-10.38.26,4.65.26,10.38-.12,10.38-.26,10.38Z"/>
      </g>
      <path class="cls-20" d="m203.63,313.29s-.01-.1-.02-.3c0-.22-.01-.5-.02-.88,0-.79-.02-1.94-.04-3.41-.02-3-.04-7.36-.07-12.85-.02-11.05-.06-26.69-.09-45.17v-.1s.07-.07.07-.07c1.28-1.28,2.68-2.69,4.11-4.11l-.07.17c0-11.1-.01-23.26-.02-35.95,0-6.04,0-11.95,0-17.68v-.08l.05-.07c.68-.94,1.35-1.87,2.02-2.79l-.05.15c.02-16.72.04-31.91.05-44.47v-.04s.01-.03.01-.03c.49-1.31.96-2.53,1.4-3.72v.07c.02-10.72.05-19.41.07-25.45.02-2.99.04-5.32.05-6.93.01-.78.02-1.38.03-1.8,0-.41.03-.61.03-.61,0,0,.02.21.03.61,0,.43.02,1.03.03,1.8.01,1.61.03,3.94.05,6.93.02,6.04.05,14.73.09,25.45v.03s-.01.03-.01.03c-.44,1.19-.9,2.41-1.39,3.73v-.07c.03,12.56.05,27.75.07,44.47v.08l-.05.07c-.67.92-1.34,1.86-2.01,2.79l.05-.15c0,5.73,0,11.65,0,17.68,0,12.69-.01,24.85-.02,35.95v.1l-.07.07c-1.43,1.42-2.83,2.83-4.11,4.11l.07-.17c-.04,18.48-.07,34.12-.09,45.17-.03,5.5-.05,9.85-.07,12.85-.02,1.47-.03,2.61-.04,3.41,0,.37-.01.66-.02.88,0,.2-.01.3-.02.3Z"/>
      <g>
        <path class="cls-18" d="m182.63,156.55v.77s-3.09.68-3.73,4.2c-.62,3.41-.42,11.47-.42,11.47h-2.81v-16.44h6.95Z"/>
        <g class="cls-12">
          <path class="cls-18" d="m182.63,156.55v.77s-3.09.68-3.73,4.2c-.62,3.41-.42,11.47-.42,11.47h-2.81v-16.44h6.95Z"/>
        </g>
        <g class="cls-13">
          <rect class="cls-18" x="178.71" y="156.55" width="3.92" height=".77"/>
        </g>
      </g>
      <g>
        <path class="cls-18" d="m181.31,121.03v.77s-3.09.69-3.73,4.2c-.62,3.41-.42,11.47-.42,11.47h-2.81v-16.44h6.95Z"/>
        <g class="cls-12">
          <path class="cls-18" d="m181.31,121.03v.77s-3.09.69-3.73,4.2c-.62,3.41-.42,11.47-.42,11.47h-2.81v-16.44h6.95Z"/>
        </g>
      </g>
      <g class="cls-13">
        <rect x="177.39" y="121.03" width="3.92" height=".77"/>
      </g>
      <path class="cls-10" d="m539,246.57v-53.63l-2.01-2.79v-44.47l-1.4-3.73v-34.8h2.65v-2.24h-1.64v-4.85h-3v-5.83h-2.27v5.83h-3.09v4.85h-1.59v2.24h2.9v34.8l-1.4,3.73v44.47l-2.01,2.79v53.63l-4.11,4.11v64.05h21.07v-64.05l-4.11-4.11Z"/>
      <path class="cls-4" d="m539,246.57v-53.63l-2.01-2.79v-44.47l-1.4-3.73v-34.8h2.65v-2.24h-1.64v-4.85h-3v-5.83h-2.27v5.83h-3.09v4.85h-1.59v2.24h2.9v34.8l-1.4,3.73v44.47l-2.01,2.79v53.63l-4.11,4.11v64.05h21.07v-64.05l-4.11-4.11Z"/>
      <path class="cls-10" d="m543.81,208.77v.77s-3.09.68-3.73,4.2c-.62,3.41-.42,11.47-.42,11.47h-2.81v-16.44h6.95Z"/>
      <path class="cls-18" d="m543.81,208.77v.77s-3.09.68-3.73,4.2c-.62,3.41-.42,11.47-.42,11.47h-2.81v-16.44h6.95Z"/>
      <g class="cls-13">
        <rect x="539.89" y="208.77" width="3.92" height=".77"/>
      </g>
      <path class="cls-10" d="m544.4,265.85v.77s-3.09.69-3.73,4.2c-.62,3.41-.42,11.47-.42,11.47h-2.81v-16.44h6.95Z"/>
      <path class="cls-19" d="m544.4,265.85v.77s-3.09.69-3.73,4.2c-.62,3.41-.42,11.47-.42,11.47h-2.81v-16.44h6.95Z"/>
      <g class="cls-13">
        <rect x="540.48" y="265.85" width="3.92" height=".77"/>
      </g>
      <path class="cls-19" d="m535.34,108.52s.06.24.14.72c.08.5.21,1.21.36,2.13.31,1.89.76,4.65,1.35,8.2,1.18,7.12,2.76,17.44,4.92,30.17,1.09,6.36,2.49,13.29,4.61,20.56,2.11,7.28,4.92,14.89,8.49,22.63,3.59,7.73,8.07,15.5,13.16,23.24,1.32,1.9,2.66,3.82,4.01,5.76.65.98,1.39,1.91,2.12,2.85.73.94,1.46,1.88,2.19,2.83,2.85,3.86,6.13,7.45,9.31,11.2.78.95,1.65,1.82,2.49,2.71.84.89,1.68,1.77,2.52,2.65.84.88,1.67,1.76,2.5,2.63.83.88,1.65,1.75,2.53,2.57,3.42,3.36,6.88,6.56,10.42,9.56,7.06,6.02,14.3,11.31,21.48,15.89,14.38,9.18,28.5,15.48,40.68,19.68,12.19,4.22,22.43,6.43,29.54,7.62,3.56.6,6.34.94,8.23,1.13.93.09,1.65.16,2.15.2.49.04.73.07.73.07,0,0-.25,0-.74-.02-.49-.02-1.21-.07-2.16-.15-1.89-.16-4.68-.47-8.25-1.04-7.13-1.13-17.4-3.29-29.63-7.48-12.22-4.17-26.39-10.44-40.82-19.62-7.21-4.58-14.48-9.88-21.56-15.91-3.55-3.01-7.03-6.22-10.45-9.58-.88-.82-1.7-1.7-2.53-2.58-.83-.88-1.67-1.76-2.51-2.64s-1.68-1.77-2.52-2.66c-.84-.89-1.71-1.76-2.49-2.72-3.19-3.76-6.47-7.36-9.33-11.23-.73-.95-1.47-1.89-2.2-2.84-.73-.94-1.47-1.87-2.12-2.86-1.35-1.94-2.69-3.87-4.01-5.78-5.1-7.77-9.58-15.56-13.17-23.32-3.56-7.77-6.37-15.41-8.47-22.71-2.11-7.3-3.49-14.26-4.56-20.62-2.11-12.73-3.63-23.07-4.75-30.2-.54-3.56-.96-6.32-1.25-8.22-.14-.93-.24-1.64-.31-2.14-.07-.48-.09-.73-.09-.73Z"/>
      <rect class="cls-10" x="533.82" y="144.79" width="38.19" height="11.76"/>
      <rect class="cls-18" x="533.82" y="144.79" width="38.19" height="11.76"/>
      <g class="cls-13">
        <rect x="540.93" y="147.2" width="1.93" height="7.34"/>
      </g>
      <g class="cls-13">
        <rect x="544.13" y="147.2" width="1.93" height="7.34"/>
      </g>
      <g class="cls-13">
        <rect x="547.32" y="147.2" width="1.93" height="7.34"/>
      </g>
      <g class="cls-13">
        <rect x="550.52" y="147.2" width="1.93" height="7.34"/>
      </g>
      <g class="cls-13">
        <rect x="553.72" y="147.2" width="1.93" height="7.34"/>
      </g>
      <g class="cls-13">
        <rect x="556.91" y="147.2" width="1.93" height="7.34"/>
      </g>
      <g class="cls-13">
        <rect x="560.11" y="147.2" width="1.93" height="7.34"/>
      </g>
      <g class="cls-13">
        <rect x="563.31" y="147.2" width="1.93" height="7.34"/>
      </g>
      <g class="cls-13">
        <rect x="566.29" y="147.2" width="1.93" height="7.34"/>
      </g>
      <g class="cls-13">
        <rect x="537.73" y="147.2" width="1.93" height="7.34"/>
      </g>
      <rect class="cls-10" x="533.82" y="197.01" width="38.19" height="11.76"/>
      <rect class="cls-18" x="533.82" y="197.01" width="38.19" height="11.76"/>
      <g class="cls-13">
        <rect x="540.93" y="199.42" width="1.93" height="7.34"/>
      </g>
      <g class="cls-13">
        <rect x="544.13" y="199.42" width="1.93" height="7.34"/>
      </g>
      <g class="cls-13">
        <rect x="547.32" y="199.42" width="1.93" height="7.34"/>
      </g>
      <g class="cls-13">
        <rect x="550.52" y="199.42" width="1.93" height="7.34"/>
      </g>
      <g class="cls-13">
        <rect x="553.72" y="199.42" width="1.93" height="7.34"/>
      </g>
      <g class="cls-13">
        <rect x="556.91" y="199.42" width="1.93" height="7.34"/>
      </g>
      <g class="cls-13">
        <rect x="560.11" y="199.42" width="1.93" height="7.34"/>
      </g>
      <g class="cls-13">
        <rect x="563.31" y="199.42" width="1.93" height="7.34"/>
      </g>
      <g class="cls-13">
        <rect x="566.29" y="199.42" width="1.93" height="7.34"/>
      </g>
      <g class="cls-13">
        <rect x="537.73" y="199.42" width="1.93" height="7.34"/>
      </g>
      <rect class="cls-10" x="533.82" y="254.08" width="38.19" height="11.76"/>
      <rect class="cls-18" x="533.82" y="254.08" width="38.19" height="11.76"/>
      <g class="cls-13">
        <rect x="540.93" y="256.5" width="1.93" height="7.34"/>
      </g>
      <g class="cls-13">
        <rect x="544.13" y="256.5" width="1.93" height="7.34"/>
      </g>
      <g class="cls-13">
        <rect x="547.32" y="256.5" width="1.93" height="7.34"/>
      </g>
      <g class="cls-13">
        <rect x="550.52" y="256.5" width="1.93" height="7.34"/>
      </g>
      <g class="cls-13">
        <rect x="553.72" y="256.5" width="1.93" height="7.34"/>
      </g>
      <g class="cls-13">
        <rect x="556.91" y="256.5" width="1.93" height="7.34"/>
      </g>
      <g class="cls-13">
        <rect x="560.11" y="256.5" width="1.93" height="7.34"/>
      </g>
      <g class="cls-13">
        <rect x="563.31" y="256.5" width="1.93" height="7.34"/>
      </g>
      <g class="cls-13">
        <rect x="566.29" y="256.5" width="1.93" height="7.34"/>
      </g>
      <g class="cls-13">
        <rect x="537.73" y="256.5" width="1.93" height="7.34"/>
      </g>
      <path class="cls-19" d="m581.45,246.57v-53.63l-2.01-2.79v-44.47l-1.4-3.73v-35.62h-6.03v35.62l-1.4,3.73v44.47l-2.01,2.79v53.63l-4.11,4.11v64.05h21.07v-64.05l-4.11-4.11Z"/>
      <rect class="cls-19" x="569.11" y="104.91" width="11.59" height="2.24"/>
      <rect class="cls-19" x="570.7" y="100.06" width="8.36" height="5.53"/>
      <rect class="cls-19" x="573.44" y="94.23" width="2.96" height="8.6"/>
      <rect class="cls-10" x="533.82" y="109.26" width="38.19" height="11.76"/>
      <rect class="cls-18" x="533.82" y="109.26" width="38.19" height="11.76"/>
      <g class="cls-13">
        <rect x="540.93" y="111.68" width="1.93" height="7.34"/>
      </g>
      <g class="cls-13">
        <rect x="544.13" y="111.68" width="1.93" height="7.34"/>
      </g>
      <g class="cls-13">
        <rect x="547.32" y="111.68" width="1.93" height="7.34"/>
      </g>
      <g class="cls-13">
        <rect x="550.52" y="111.68" width="1.93" height="7.34"/>
      </g>
      <g class="cls-13">
        <rect x="553.72" y="111.68" width="1.93" height="7.34"/>
      </g>
      <g class="cls-13">
        <rect x="556.91" y="111.68" width="1.93" height="7.34"/>
      </g>
      <g class="cls-13">
        <rect x="560.11" y="111.68" width="1.93" height="7.34"/>
      </g>
      <g class="cls-13">
        <rect x="563.31" y="111.68" width="1.93" height="7.34"/>
      </g>
      <g class="cls-13">
        <rect x="566.29" y="111.68" width="1.93" height="7.34"/>
      </g>
      <g class="cls-13">
        <rect x="537.73" y="111.68" width="1.93" height="7.34"/>
      </g>
      <path class="cls-19" d="m578.07,110.63s.04.2.09.6c.05.42.12,1.01.21,1.77.19,1.58.46,3.87.81,6.82.75,5.92,1.81,14.49,3.69,24.98,1.89,10.48,5.06,22.84,10.45,35.86,2.6,6.55,5.91,13.17,9.58,19.9,1.92,3.31,3.82,6.73,6.02,10.02,1.09,1.65,2.1,3.37,3.27,5,1.16,1.64,2.33,3.28,3.51,4.94,9.53,13.18,20.19,24.55,30.69,33.93,10.54,9.35,20.95,16.71,30.1,22.16,9.12,5.51,16.95,9.19,22.39,11.62,2.73,1.19,4.86,2.1,6.32,2.67.71.29,1.26.52,1.65.68.37.16.56.25.56.25,0,0-.2-.06-.58-.2-.39-.15-.95-.36-1.67-.63-1.47-.55-3.62-1.42-6.37-2.58-5.47-2.38-13.33-6.01-22.5-11.49-9.19-5.42-19.64-12.77-30.23-22.12-10.55-9.38-21.24-20.77-30.8-33.98-1.18-1.66-2.35-3.31-3.51-4.95-1.17-1.64-2.19-3.36-3.28-5.02-2.2-3.3-4.1-6.72-6.03-10.05-3.67-6.75-6.98-13.39-9.58-19.96-5.38-13.07-8.53-25.47-10.37-35.98-1.84-10.52-2.85-19.1-3.53-25.02-.33-2.96-.57-5.27-.72-6.83-.07-.77-.12-1.36-.16-1.78-.03-.4-.03-.61-.03-.61Z"/>
      <path class="cls-19" d="m408.22,314.73c-.14,0-.26-3.09-.26-6.89s.12-6.89.26-6.89.26,3.09.26,6.89-.12,6.89-.26,6.89Z"/>
      <path class="cls-19" d="m416.88,314.73c-.14,0-.26-3.33-.26-7.43s.12-7.43.26-7.43.26,3.32.26,7.43-.12,7.43-.26,7.43Z"/>
      <path class="cls-19" d="m424.78,314.73c-.14,0-.26-7.8-.26-17.41s.12-17.41.26-17.41.26,7.79.26,17.41-.12,17.41-.26,17.41Z"/>
      <path class="cls-19" d="m432.44,314.73c-.14,0-.26-4.26-.26-9.52s.12-9.52.26-9.52.26,4.26.26,9.52-.12,9.52-.26,9.52Z"/>
      <path class="cls-19" d="m441.12,314.73c-.14,0-.26-9.83-.26-21.94s.12-21.95.26-21.95.26,9.82.26,21.95-.12,21.94-.26,21.94Z"/>
      <path class="cls-19" d="m449.34,314.73c-.14,0-.26-5.51-.26-12.29s.12-12.3.26-12.3.26,5.5.26,12.3-.12,12.29-.26,12.29Z"/>
      <path class="cls-19" d="m457.93,314.73c-.14,0-.26-12.78-.26-28.55s.12-28.55.26-28.55.26,12.78.26,28.55-.12,28.55-.26,28.55Z"/>
      <path class="cls-19" d="m466.51,314.73c-.14,0-.26-7.56-.26-16.88s.12-16.88.26-16.88.26,7.56.26,16.88-.12,16.88-.26,16.88Z"/>
      <path class="cls-19" d="m475.1,314.73c-.14,0-.26-16.23-.26-36.25s.12-36.25.26-36.25.26,16.23.26,36.25-.12,36.25-.26,36.25Z"/>
      <path class="cls-19" d="m483.32,314.73c-.14,0-.26-9.83-.26-21.94s.12-21.95.26-21.95.26,9.82.26,21.95-.12,21.94-.26,21.94Z"/>
      <path class="cls-19" d="m491.17,314.73c-.14,0-.26-20.89-.26-46.65s.12-46.66.26-46.66.26,20.88.26,46.66-.12,46.65-.26,46.65Z"/>
      <path class="cls-19" d="m500.67,314.73c-.14,0-.26-12.78-.26-28.55s.12-28.55.26-28.55.26,12.78.26,28.55-.12,28.55-.26,28.55Z"/>
      <path class="cls-19" d="m508.53,314.73c-.14,0-.26-26.52-.26-59.24s.12-59.24.26-59.24.26,26.52.26,59.24-.12,59.24-.26,59.24Z"/>
      <path class="cls-19" d="m517.75,314.73c-.14,0-.26-16.43-.26-36.7s.12-36.7.26-36.7.26,16.43.26,36.7-.12,36.7-.26,36.7Z"/>
      <path class="cls-19" d="m526.79,314.73c-.14,0-.26-40.81-.26-91.14s.12-91.15.26-91.15.26,40.8.26,91.15-.12,91.14-.26,91.14Z"/>
      <path class="cls-19" d="m535.84,314.73c-.14,0-.26-21.37-.26-47.72s.12-47.72.26-47.72.26,21.36.26,47.72-.12,47.72-.26,47.72Z"/>
      <path class="cls-19" d="m544.88,314.73c-.14,0-.26-33.66-.26-75.17s.12-75.18.26-75.18.26,33.65.26,75.18-.12,75.17-.26,75.17Z"/>
      <path class="cls-19" d="m553.93,314.73c-.14,0-.26-27.71-.26-61.88s.12-61.89.26-61.89.26,27.7.26,61.89-.12,61.88-.26,61.88Z"/>
      <path class="cls-19" d="m562.97,314.73c-.14,0-.26-35.24-.26-78.69s.12-78.7.26-78.7.26,35.23.26,78.7-.12,78.69-.26,78.69Z"/>
      <path class="cls-19" d="m581.06,314.73c-.14,0-.26-18.01-.26-40.22s.12-40.22.26-40.22.26,18.01.26,40.22-.12,40.22-.26,40.22Z"/>
      <path class="cls-19" d="m590.11,314.73c-.14,0-.26-15.89-.26-35.5s.12-35.5.26-35.5.26,15.89.26,35.5-.12,35.5-.26,35.5Z"/>
      <path class="cls-19" d="m599.15,314.73c-.14,0-.26-26.52-.26-59.24s.12-59.24.26-59.24.26,26.52.26,59.24-.12,59.24-.26,59.24Z"/>
      <path class="cls-19" d="m608.2,314.73c-.14,0-.26-12.22-.26-27.28s.12-27.28.26-27.28.26,12.21.26,27.28-.12,27.28-.26,27.28Z"/>
      <path class="cls-19" d="m617.24,314.73c-.14,0-.26-20.32-.26-45.38s.12-45.39.26-45.39.26,20.32.26,45.39-.12,45.38-.26,45.38Z"/>
      <path class="cls-19" d="m626.29,314.73c-.14,0-.26-9.29-.26-20.75s.12-20.76.26-20.76.26,9.29.26,20.76-.12,20.75-.26,20.75Z"/>
      <path class="cls-19" d="m635.33,316.47c-.14,0-.26-16.43-.26-36.7s.12-36.7.26-36.7.26,16.43.26,36.7-.12,36.7-.26,36.7Z"/>
      <path class="cls-19" d="m644.38,314.73c-.14,0-.26-6.92-.26-15.46s.12-15.46.26-15.46.26,6.92.26,15.46-.12,15.46-.26,15.46Z"/>
      <path class="cls-19" d="m653.42,314.73c-.14,0-.26-11.88-.26-26.53s.12-26.53.26-26.53.26,11.88.26,26.53-.12,26.53-.26,26.53Z"/>
      <path class="cls-19" d="m662.47,314.73c-.14,0-.26-4.91-.26-10.97s.12-10.97.26-10.97.26,4.91.26,10.97-.12,10.97-.26,10.97Z"/>
      <path class="cls-19" d="m671.51,314.73c-.14,0-.26-9.29-.26-20.75s.12-20.76.26-20.76.26,9.29.26,20.76-.12,20.75-.26,20.75Z"/>
      <path class="cls-19" d="m680.56,314.73c-.14,0-.26-3.78-.26-8.44s.12-8.44.26-8.44.26,3.78.26,8.44-.12,8.44-.26,8.44Z"/>
      <path class="cls-19" d="m689.61,314.73c-.14,0-.26-6.92-.26-15.46s.12-15.46.26-15.46.26,6.92.26,15.46-.12,15.46-.26,15.46Z"/>
      <path class="cls-20" d="m564.49,313.29s-.01-.1-.02-.3c0-.22-.01-.5-.02-.88,0-.79-.02-1.94-.04-3.41-.02-3-.04-7.36-.07-12.85-.02-11.05-.06-26.69-.09-45.17v-.1s.07-.07.07-.07c1.28-1.28,2.68-2.69,4.11-4.11l-.07.17c0-11.1-.01-23.26-.02-35.95,0-6.04,0-11.95,0-17.68v-.08l.05-.07c.68-.94,1.35-1.87,2.02-2.79l-.05.15c.02-16.72.04-31.91.05-44.47v-.07c.51-1.31.97-2.53,1.42-3.72v.07c.02-10.72.05-19.41.07-25.45.02-2.99.04-5.32.05-6.93.01-.78.02-1.38.03-1.8,0-.41.03-.61.03-.61,0,0,.02.21.03.61,0,.43.02,1.03.03,1.8.01,1.61.03,3.94.05,6.93.02,6.04.05,14.73.09,25.45v.03s-.01.03-.01.03c-.44,1.19-.9,2.41-1.39,3.73v-.07c.03,12.56.05,27.75.07,44.47v.08s-.05.07-.05.07c-.67.92-1.34,1.86-2.01,2.79l.05-.15c0,5.73,0,11.65,0,17.68,0,12.69-.01,24.85-.02,35.95v.1s-.07.07-.07.07c-1.43,1.42-2.83,2.83-4.11,4.11l.07-.17c-.04,18.48-.07,34.12-.09,45.17-.03,5.5-.05,9.85-.07,12.85-.02,1.47-.03,2.61-.04,3.41,0,.37-.01.66-.02.88,0,.2-.01.3-.02.3Z"/>
      <path class="cls-10" d="m543.49,156.55v.77s-3.09.68-3.73,4.2c-.62,3.41-.42,11.47-.42,11.47h-2.81v-16.44h6.95Z"/>
      <path class="cls-18" d="m543.49,156.55v.77s-3.09.68-3.73,4.2c-.62,3.41-.42,11.47-.42,11.47h-2.81v-16.44h6.95Z"/>
      <g class="cls-13">
        <rect x="539.57" y="156.55" width="3.92" height=".77"/>
      </g>
      <path class="cls-10" d="m542.17,121.03v.77s-3.09.69-3.73,4.2c-.62,3.41-.42,11.47-.42,11.47h-2.81v-16.44h6.95Z"/>
      <path class="cls-18" d="m542.17,121.03v.77s-3.09.69-3.73,4.2c-.62,3.41-.42,11.47-.42,11.47h-2.81v-16.44h6.95Z"/>
      <g class="cls-13">
        <rect x="538.25" y="121.03" width="3.92" height=".77"/>
      </g>
      <path class="cls-20" d="m565.01,313.31c0,.14-121.82.26-272.05.26s-272.07-.12-272.07-.26,121.79-.26,272.07-.26,272.05.12,272.05.26Z"/>
      <rect class="cls-4" x="95.06" y="311.24" width="5.3" height="15.37"/>
      <rect class="cls-4" x="279.37" y="311.24" width="5.3" height="15.37"/>
      <path class="cls-4" d="m709.25,324.48s-.61.02-1.79.03c-1.19,0-2.95.01-5.26.03-4.63.01-11.44.03-20.21.05-17.56.02-42.95.05-74.32.08-62.76.02-149.46.05-245.21.08-170.08-.11-311.48-.2-340.51-.21h-.05v-.05c.01-2.18.02-3.75.02-4.79,0-1.03.02-1.52.02-1.52,0,0,.02.49.02,1.52,0,1.04.01,2.62.02,4.79l-.05-.05c29.03-.02,170.43-.11,340.51-.21,95.75.03,182.44.06,245.21.08,31.38.03,56.77.06,74.32.08,8.77.02,15.58.04,20.21.05,2.31.01,4.06.02,5.26.03,1.18,0,1.79.03,1.79.03Z"/>
      <g>
        <g>
          <path class="cls-4" d="m36.28,324.48s-.06-.03-.16-.11c-.14-.11-.28-.23-.43-.35-.46-.4-.97-.83-1.54-1.33-1.42-1.25-3.13-2.77-5.03-4.44h.14s-.05.04-.05.04c-1.93,1.67-3.67,3.17-5.11,4.41-.58.49-1.1.93-1.56,1.32-.15.12-.29.24-.43.35-.1.08-.16.12-.16.11s.04-.05.13-.14c.13-.12.26-.25.41-.38.45-.41.96-.86,1.52-1.37,1.43-1.26,3.16-2.78,5.07-4.46l.05-.04.07-.06.07.06c1.88,1.69,3.58,3.23,4.99,4.49.55.51,1.05.97,1.49,1.38.14.13.27.26.4.38.09.09.13.14.13.14Z"/>
          <path class="cls-4" d="m50.5,324.48s-.06-.03-.16-.11c-.14-.11-.28-.23-.43-.35-.46-.4-.97-.83-1.54-1.33-1.42-1.25-3.13-2.77-5.03-4.44h.14s-.05.04-.05.04c-1.93,1.67-3.67,3.17-5.11,4.41-.58.49-1.1.93-1.56,1.32-.15.12-.29.24-.43.35-.1.08-.16.12-.16.11,0,0,.04-.05.13-.14.13-.12.26-.25.41-.38.45-.41.96-.86,1.52-1.37,1.43-1.26,3.16-2.78,5.07-4.46l.05-.04.07-.06.07.06c1.88,1.69,3.58,3.23,4.99,4.49.56.51,1.05.97,1.49,1.38.14.13.27.26.4.38.09.09.13.14.13.14Z"/>
          <path class="cls-4" d="m64.73,324.48s-.06-.03-.16-.11c-.14-.11-.28-.23-.43-.35-.46-.4-.97-.83-1.54-1.33-1.42-1.25-3.13-2.77-5.03-4.44h.14s-.05.04-.05.04c-1.93,1.67-3.67,3.17-5.11,4.41-.58.49-1.1.93-1.56,1.32-.15.12-.29.24-.43.35-.1.08-.16.12-.16.11s.04-.05.13-.14c.13-.12.26-.25.41-.38.45-.41.96-.86,1.52-1.37,1.43-1.26,3.16-2.78,5.07-4.46l.05-.04.07-.06.07.06c1.88,1.69,3.58,3.23,4.99,4.49.55.51,1.05.97,1.49,1.38.14.13.27.26.4.38.09.09.13.14.13.14Z"/>
          <path class="cls-4" d="m78.95,324.48s-.06-.03-.16-.11c-.14-.11-.28-.23-.43-.35-.46-.4-.97-.83-1.54-1.33-1.42-1.25-3.13-2.77-5.03-4.44h.14s-.05.04-.05.04c-1.93,1.67-3.67,3.17-5.11,4.41-.58.49-1.1.93-1.56,1.32-.15.12-.29.24-.43.35-.1.08-.16.12-.16.11,0,0,.04-.05.13-.14.13-.12.26-.25.41-.38.45-.41.96-.86,1.52-1.37,1.43-1.26,3.16-2.78,5.07-4.46l.05-.04.07-.06.07.06c1.88,1.69,3.58,3.23,4.99,4.49.56.51,1.05.97,1.49,1.38.14.13.27.26.4.38.09.09.13.14.13.14Z"/>
          <path class="cls-4" d="m93.17,324.48s-.06-.03-.16-.11c-.14-.11-.28-.23-.43-.35-.46-.4-.97-.83-1.54-1.33-1.42-1.25-3.13-2.77-5.03-4.44h.14s-.05.04-.05.04c-1.93,1.67-3.67,3.17-5.11,4.41-.58.49-1.1.93-1.56,1.32-.15.12-.29.24-.43.35-.1.08-.16.12-.16.11,0,0,.04-.05.13-.14.13-.12.26-.25.41-.38.45-.41.96-.86,1.52-1.37,1.43-1.26,3.16-2.78,5.07-4.46l.05-.04.07-.06.07.06c1.88,1.69,3.58,3.23,4.99,4.49.56.51,1.05.97,1.49,1.38.14.13.27.26.4.38.09.09.13.14.13.14Z"/>
          <path class="cls-4" d="m107.4,324.48s-.06-.03-.16-.11c-.14-.11-.28-.23-.43-.35-.46-.4-.97-.83-1.54-1.33-1.42-1.25-3.13-2.77-5.03-4.44h.14s-.05.04-.05.04c-1.93,1.67-3.67,3.17-5.11,4.41-.58.49-1.1.93-1.56,1.32-.15.12-.29.24-.43.35-.1.08-.16.12-.16.11s.04-.05.13-.14c.13-.12.26-.25.41-.38.45-.41.96-.86,1.52-1.37,1.43-1.26,3.16-2.78,5.07-4.46l.05-.04.07-.06.07.06c1.88,1.69,3.58,3.23,4.99,4.49.55.51,1.05.97,1.49,1.38.14.13.27.26.4.38.09.09.13.14.13.14Z"/>
          <path class="cls-4" d="m121.62,324.48s-.06-.03-.16-.11c-.14-.11-.28-.23-.43-.35-.46-.4-.97-.83-1.54-1.33-1.42-1.25-3.13-2.77-5.03-4.44h.14s-.05.04-.05.04c-1.93,1.67-3.67,3.17-5.11,4.41-.58.49-1.1.93-1.56,1.32-.15.12-.29.24-.43.35-.1.08-.16.12-.16.11,0,0,.04-.05.13-.14.13-.12.26-.25.41-.38.45-.41.96-.86,1.52-1.37,1.43-1.26,3.16-2.78,5.07-4.46l.05-.04.07-.06.07.06c1.88,1.69,3.58,3.23,4.99,4.49.56.51,1.05.97,1.49,1.38.14.13.27.26.4.38.09.09.13.14.13.14Z"/>
          <path class="cls-4" d="m135.85,324.48s-.06-.03-.16-.11c-.14-.11-.28-.23-.43-.35-.46-.4-.97-.83-1.54-1.33-1.42-1.25-3.13-2.77-5.03-4.44h.14s-.05.04-.05.04c-1.93,1.67-3.67,3.17-5.11,4.41-.58.49-1.1.93-1.56,1.32-.15.12-.29.24-.43.35-.1.08-.16.12-.16.11,0,0,.04-.05.13-.14.13-.12.26-.25.41-.38.45-.41.96-.86,1.52-1.37,1.43-1.26,3.16-2.78,5.07-4.46l.05-.04.07-.06.07.06c1.88,1.69,3.58,3.23,4.99,4.49.55.51,1.05.97,1.49,1.38.14.13.27.26.4.38.09.09.13.14.13.14Z"/>
          <path class="cls-4" d="m150.07,324.48s-.06-.03-.16-.11c-.14-.11-.28-.23-.43-.35-.46-.4-.97-.83-1.54-1.33-1.42-1.25-3.13-2.77-5.03-4.44h.14s-.05.04-.05.04c-1.93,1.67-3.67,3.17-5.11,4.41-.58.49-1.1.93-1.56,1.32-.15.12-.29.24-.43.35-.1.08-.16.12-.16.11s.04-.05.13-.14c.13-.12.26-.25.41-.38.45-.41.96-.86,1.52-1.37,1.43-1.26,3.16-2.78,5.07-4.46l.05-.04.07-.06.07.06c1.88,1.69,3.58,3.23,4.99,4.49.55.51,1.05.97,1.49,1.38.14.13.27.26.4.38.09.09.13.14.13.14Z"/>
          <path class="cls-4" d="m164.29,324.48s-.06-.03-.16-.11c-.14-.11-.28-.23-.43-.35-.46-.4-.97-.83-1.54-1.33-1.42-1.25-3.13-2.77-5.03-4.44h.14s-.05.04-.05.04c-1.93,1.67-3.67,3.17-5.11,4.41-.58.49-1.1.93-1.56,1.32-.15.12-.29.24-.43.35-.1.08-.16.12-.16.11,0,0,.04-.05.13-.14.13-.12.26-.25.41-.38.45-.41.96-.86,1.52-1.37,1.43-1.26,3.16-2.78,5.07-4.46l.05-.04.07-.06.07.06c1.88,1.69,3.58,3.23,4.99,4.49.55.51,1.05.97,1.49,1.38.14.13.27.26.4.38.09.09.13.14.13.14Z"/>
          <path class="cls-4" d="m178.52,324.48s-.06-.03-.16-.11c-.14-.11-.28-.23-.43-.35-.46-.4-.97-.83-1.54-1.33-1.42-1.25-3.13-2.77-5.03-4.44h.14s-.04.04-.04.04c-1.93,1.67-3.67,3.17-5.11,4.41-.58.49-1.1.93-1.56,1.32-.15.12-.29.24-.43.35-.1.08-.16.12-.16.11s.04-.05.13-.14c.13-.12.26-.25.41-.38.45-.41.96-.86,1.52-1.37,1.43-1.26,3.16-2.78,5.07-4.46l.04-.04.07-.06.07.06c1.88,1.69,3.58,3.23,4.99,4.49.55.51,1.05.97,1.49,1.38.14.13.27.26.4.38.09.09.13.14.13.14Z"/>
          <path class="cls-4" d="m29.1,324.59c-.06,0-.1-1.55-.1-3.46s.05-3.46.1-3.46.1,1.55.1,3.46-.05,3.46-.1,3.46Z"/>
          <path class="cls-4" d="m43.34,324.59c-.06,0-.1-1.55-.1-3.46s.05-3.46.1-3.46.1,1.55.1,3.46-.05,3.46-.1,3.46Z"/>
          <path class="cls-4" d="m36.28,324.59c-.06,0-.1-1.55-.1-3.46s.05-3.46.1-3.46.1,1.55.1,3.46-.05,3.46-.1,3.46Z"/>
          <path class="cls-4" d="m57.58,324.59c-.06,0-.1-1.55-.1-3.46s.05-3.46.1-3.46.1,1.55.1,3.46-.05,3.46-.1,3.46Z"/>
          <path class="cls-4" d="m50.5,324.59c-.06,0-.1-1.55-.1-3.46s.05-3.46.1-3.46.1,1.55.1,3.46-.05,3.46-.1,3.46Z"/>
          <path class="cls-4" d="m71.82,324.59c-.06,0-.1-1.55-.1-3.46s.05-3.46.1-3.46.1,1.55.1,3.46-.05,3.46-.1,3.46Z"/>
          <path class="cls-4" d="m86.06,324.59c-.06,0-.1-1.55-.1-3.46s.05-3.46.1-3.46.1,1.55.1,3.46-.05,3.46-.1,3.46Z"/>
          <path class="cls-4" d="m78.85,324.59c-.06,0-.1-1.55-.1-3.46s.05-3.46.1-3.46.1,1.55.1,3.46-.05,3.46-.1,3.46Z"/>
          <path class="cls-4" d="m64.63,324.59c-.06,0-.1-1.55-.1-3.46s.05-3.46.1-3.46.1,1.55.1,3.46-.05,3.46-.1,3.46Z"/>
          <path class="cls-4" d="m93.17,324.59c-.06,0-.1-1.55-.1-3.46s.05-3.46.1-3.46.1,1.55.1,3.46-.05,3.46-.1,3.46Z"/>
          <path class="cls-4" d="m100.24,324.59c-.06,0-.1-1.55-.1-3.46s.05-3.46.1-3.46.1,1.55.1,3.46-.05,3.46-.1,3.46Z"/>
          <path class="cls-4" d="m107.3,324.59c-.06,0-.1-1.55-.1-3.46s.05-3.46.1-3.46.1,1.55.1,3.46-.05,3.46-.1,3.46Z"/>
          <path class="cls-4" d="m114.36,324.59c-.06,0-.1-1.55-.1-3.46s.05-3.46.1-3.46.1,1.55.1,3.46-.05,3.46-.1,3.46Z"/>
          <path class="cls-4" d="m121.42,324.59c-.06,0-.1-1.55-.1-3.46s.05-3.46.1-3.46.1,1.55.1,3.46-.05,3.46-.1,3.46Z"/>
          <path class="cls-4" d="m128.68,324.59c-.06,0-.1-1.55-.1-3.46s.05-3.46.1-3.46.1,1.55.1,3.46-.05,3.46-.1,3.46Z"/>
          <path class="cls-4" d="m135.85,324.59c-.06,0-.1-1.55-.1-3.46s.05-3.46.1-3.46.1,1.55.1,3.46-.05,3.46-.1,3.46Z"/>
          <path class="cls-4" d="m142.91,324.59c-.06,0-.1-1.55-.1-3.46s.05-3.46.1-3.46.1,1.55.1,3.46-.05,3.46-.1,3.46Z"/>
          <path class="cls-4" d="m150.07,324.59c-.06,0-.1-1.55-.1-3.46s.05-3.46.1-3.46.1,1.55.1,3.46-.05,3.46-.1,3.46Z"/>
          <path class="cls-4" d="m157.13,324.59c-.06,0-.1-1.55-.1-3.46s.05-3.46.1-3.46.1,1.55.1,3.46-.05,3.46-.1,3.46Z"/>
          <path class="cls-4" d="m164.29,324.59c-.06,0-.1-1.55-.1-3.46s.05-3.46.1-3.46.1,1.55.1,3.46-.05,3.46-.1,3.46Z"/>
          <path class="cls-4" d="m171.5,324.59c-.06,0-.1-1.55-.1-3.46s.05-3.46.1-3.46.1,1.55.1,3.46-.05,3.46-.1,3.46Z"/>
        </g>
        <g>
          <path class="cls-4" d="m166.22,324.48s-.06-.03-.16-.11c-.14-.11-.28-.23-.43-.35-.46-.4-.97-.83-1.54-1.33-1.42-1.25-3.13-2.77-5.03-4.44h.14s-.05.04-.05.04c-1.93,1.67-3.67,3.17-5.11,4.41-.58.49-1.1.93-1.56,1.32-.15.12-.29.24-.43.35-.1.08-.16.12-.16.11,0,0,.04-.05.13-.14.13-.12.26-.25.41-.38.45-.41.96-.86,1.52-1.37,1.43-1.26,3.16-2.78,5.07-4.46l.05-.04.07-.06.07.06c1.88,1.69,3.58,3.23,4.99,4.49.55.51,1.05.97,1.49,1.38.14.13.27.26.4.38.09.09.13.14.13.14Z"/>
          <path class="cls-4" d="m180.44,324.48s-.06-.03-.16-.11c-.14-.11-.28-.23-.43-.35-.46-.4-.97-.83-1.54-1.33-1.42-1.25-3.13-2.77-5.03-4.44h.14s-.04.04-.04.04c-1.93,1.67-3.67,3.17-5.11,4.41-.58.49-1.1.93-1.56,1.32-.15.12-.29.24-.43.35-.1.08-.16.12-.16.11s.04-.05.13-.14c.13-.12.26-.25.41-.38.45-.41.96-.86,1.52-1.37,1.43-1.26,3.16-2.78,5.07-4.46l.04-.04.07-.06.07.06c1.88,1.69,3.58,3.23,4.99,4.49.55.51,1.05.97,1.49,1.38.14.13.27.26.4.38.09.09.13.14.13.14Z"/>
          <path class="cls-4" d="m194.67,324.48s-.06-.03-.16-.11c-.14-.11-.28-.23-.43-.35-.46-.4-.97-.83-1.54-1.33-1.42-1.25-3.13-2.77-5.03-4.44h.14s-.05.04-.05.04c-1.93,1.67-3.67,3.17-5.11,4.41-.58.49-1.1.93-1.56,1.32-.15.12-.29.24-.43.35-.1.08-.16.12-.16.11,0,0,.04-.05.13-.14.13-.12.26-.25.41-.38.45-.41.96-.86,1.52-1.37,1.43-1.26,3.16-2.78,5.07-4.46l.05-.04.07-.06.07.06c1.88,1.69,3.58,3.23,4.99,4.49.55.51,1.05.97,1.49,1.38.14.13.27.26.4.38.09.09.13.14.13.14Z"/>
          <path class="cls-4" d="m208.89,324.48s-.06-.03-.16-.11c-.14-.11-.28-.23-.43-.35-.46-.4-.97-.83-1.54-1.33-1.42-1.25-3.13-2.77-5.03-4.44h.14s-.04.04-.04.04c-1.93,1.67-3.67,3.17-5.11,4.41-.58.49-1.1.93-1.56,1.32-.15.12-.29.24-.43.35-.1.08-.16.12-.16.11s.04-.05.13-.14c.13-.12.26-.25.41-.38.45-.41.96-.86,1.52-1.37,1.43-1.26,3.16-2.78,5.07-4.46l.04-.04.07-.06.07.06c1.88,1.69,3.58,3.23,4.99,4.49.55.51,1.05.97,1.49,1.38.14.13.27.26.4.38.09.09.13.14.13.14Z"/>
          <path class="cls-4" d="m223.11,324.48s-.06-.03-.16-.11c-.14-.11-.28-.23-.43-.35-.46-.4-.97-.83-1.54-1.33-1.42-1.25-3.13-2.77-5.03-4.44h.14s-.04.04-.04.04c-1.93,1.67-3.67,3.17-5.11,4.41-.58.49-1.1.93-1.56,1.32-.15.12-.29.24-.43.35-.1.08-.16.12-.16.11,0,0,.04-.05.13-.14.13-.12.26-.25.41-.38.45-.41.96-.86,1.52-1.37,1.43-1.26,3.16-2.78,5.07-4.46l.05-.04.07-.06.07.06c1.88,1.69,3.58,3.23,4.99,4.49.55.51,1.05.97,1.49,1.38.14.13.27.26.4.38.09.09.13.14.13.14Z"/>
          <path class="cls-4" d="m237.34,324.48s-.06-.03-.16-.11c-.14-.11-.28-.23-.43-.35-.46-.4-.97-.83-1.54-1.33-1.42-1.25-3.13-2.77-5.03-4.44h.14s-.05.04-.05.04c-1.93,1.67-3.67,3.17-5.11,4.41-.58.49-1.1.93-1.56,1.32-.15.12-.29.24-.43.35-.1.08-.16.12-.16.11,0,0,.04-.05.13-.14.13-.12.26-.25.41-.38.45-.41.96-.86,1.52-1.37,1.43-1.26,3.16-2.78,5.07-4.46l.04-.04.07-.06.07.06c1.88,1.69,3.58,3.23,4.99,4.49.55.51,1.05.97,1.49,1.38.14.13.27.26.4.38.09.09.13.14.13.14Z"/>
          <path class="cls-4" d="m251.56,324.48s-.06-.03-.16-.11c-.14-.11-.28-.23-.43-.35-.46-.4-.97-.83-1.54-1.33-1.42-1.25-3.13-2.77-5.03-4.44h.14s-.05.04-.05.04c-1.93,1.67-3.67,3.17-5.11,4.41-.58.49-1.1.93-1.56,1.32-.15.12-.29.24-.43.35-.1.08-.16.12-.16.11,0,0,.04-.05.13-.14.13-.12.26-.25.41-.38.45-.41.96-.86,1.52-1.37,1.43-1.26,3.16-2.78,5.07-4.46l.04-.04.07-.06.07.06c1.88,1.69,3.58,3.23,4.99,4.49.55.51,1.05.97,1.49,1.38.14.13.27.26.4.38.09.09.13.14.13.14Z"/>
          <path class="cls-4" d="m265.78,324.48s-.06-.03-.16-.11c-.14-.11-.28-.23-.43-.35-.46-.4-.97-.83-1.54-1.33-1.42-1.25-3.13-2.77-5.03-4.44h.14s-.05.04-.05.04c-1.93,1.67-3.67,3.17-5.11,4.41-.58.49-1.1.93-1.56,1.32-.15.12-.29.24-.43.35-.1.08-.16.12-.16.11,0,0,.04-.05.13-.14.13-.12.26-.25.41-.38.45-.41.96-.86,1.52-1.37,1.43-1.26,3.16-2.78,5.07-4.46l.05-.04.07-.06.07.06c1.88,1.69,3.58,3.23,4.99,4.49.55.51,1.05.97,1.49,1.38.14.13.27.26.4.38.09.09.13.14.13.14Z"/>
          <path class="cls-4" d="m280.01,324.48s-.06-.03-.16-.11c-.14-.11-.28-.23-.43-.35-.46-.4-.97-.83-1.54-1.33-1.42-1.25-3.13-2.77-5.03-4.44h.14s-.04.04-.04.04c-1.93,1.67-3.67,3.17-5.11,4.41-.58.49-1.1.93-1.56,1.32-.15.12-.29.24-.43.35-.1.08-.16.12-.16.11,0,0,.04-.05.13-.14.13-.12.26-.25.41-.38.45-.41.96-.86,1.52-1.37,1.43-1.26,3.16-2.78,5.07-4.46l.04-.04.07-.06.07.06c1.88,1.69,3.58,3.23,4.99,4.49.55.51,1.05.97,1.49,1.38.14.13.27.26.4.38.09.09.13.14.13.14Z"/>
          <path class="cls-4" d="m294.23,324.48s-.06-.03-.16-.11c-.14-.11-.28-.23-.43-.35-.46-.4-.97-.83-1.54-1.33-1.42-1.25-3.13-2.77-5.03-4.44h.14s-.04.04-.04.04c-1.93,1.67-3.67,3.17-5.11,4.41-.58.49-1.1.93-1.56,1.32-.15.12-.29.24-.43.35-.1.08-.16.12-.16.11s.04-.05.13-.14c.13-.12.26-.25.41-.38.45-.41.96-.86,1.52-1.37,1.43-1.26,3.16-2.78,5.07-4.46l.05-.04.07-.06.07.06c1.88,1.69,3.58,3.23,4.99,4.49.55.51,1.05.97,1.49,1.38.14.13.27.26.4.38.09.09.13.14.13.14Z"/>
          <path class="cls-4" d="m308.45,324.48s-.06-.03-.16-.11c-.14-.11-.28-.23-.43-.35-.46-.4-.97-.83-1.54-1.33-1.42-1.25-3.13-2.77-5.03-4.44h.14s-.05.04-.05.04c-1.93,1.67-3.67,3.17-5.11,4.41-.58.49-1.1.93-1.56,1.32-.15.12-.29.24-.43.35-.1.08-.16.12-.16.11,0,0,.04-.05.13-.14.13-.12.26-.25.41-.38.45-.41.96-.86,1.52-1.37,1.43-1.26,3.16-2.78,5.07-4.46l.05-.04.07-.06.07.06c1.88,1.69,3.58,3.23,4.99,4.49.55.51,1.05.97,1.49,1.38.14.13.27.26.4.38.09.09.13.14.13.14Z"/>
          <path class="cls-4" d="m159.04,324.59c-.06,0-.1-1.55-.1-3.46s.05-3.46.1-3.46.1,1.55.1,3.46-.05,3.46-.1,3.46Z"/>
          <path class="cls-4" d="m173.28,324.59c-.06,0-.1-1.55-.1-3.46s.05-3.46.1-3.46.1,1.55.1,3.46-.05,3.46-.1,3.46Z"/>
          <path class="cls-4" d="m166.22,324.59c-.06,0-.1-1.55-.1-3.46s.05-3.46.1-3.46.1,1.55.1,3.46-.05,3.46-.1,3.46Z"/>
          <path class="cls-4" d="m187.52,324.59c-.06,0-.1-1.55-.1-3.46s.05-3.46.1-3.46.1,1.55.1,3.46-.05,3.46-.1,3.46Z"/>
          <path class="cls-4" d="m180.44,324.59c-.06,0-.1-1.55-.1-3.46s.05-3.46.1-3.46.1,1.55.1,3.46-.05,3.46-.1,3.46Z"/>
          <path class="cls-4" d="m201.76,324.59c-.06,0-.1-1.55-.1-3.46s.05-3.46.1-3.46.1,1.55.1,3.46-.05,3.46-.1,3.46Z"/>
          <path class="cls-4" d="m216,324.59c-.06,0-.1-1.55-.1-3.46s.05-3.46.1-3.46.1,1.55.1,3.46-.05,3.46-.1,3.46Z"/>
          <path class="cls-4" d="m208.79,324.59c-.06,0-.1-1.55-.1-3.46s.05-3.46.1-3.46.1,1.55.1,3.46-.05,3.46-.1,3.46Z"/>
          <path class="cls-4" d="m194.56,324.59c-.06,0-.1-1.55-.1-3.46s.05-3.46.1-3.46.1,1.55.1,3.46-.05,3.46-.1,3.46Z"/>
          <path class="cls-4" d="m223.11,324.59c-.06,0-.1-1.55-.1-3.46s.05-3.46.1-3.46.1,1.55.1,3.46-.05,3.46-.1,3.46Z"/>
          <path class="cls-4" d="m230.17,324.59c-.06,0-.1-1.55-.1-3.46s.05-3.46.1-3.46.1,1.55.1,3.46-.05,3.46-.1,3.46Z"/>
          <path class="cls-4" d="m237.23,324.59c-.06,0-.1-1.55-.1-3.46s.05-3.46.1-3.46.1,1.55.1,3.46-.05,3.46-.1,3.46Z"/>
          <path class="cls-4" d="m244.3,324.59c-.06,0-.1-1.55-.1-3.46s.05-3.46.1-3.46.1,1.55.1,3.46-.05,3.46-.1,3.46Z"/>
          <path class="cls-4" d="m251.36,324.59c-.06,0-.1-1.55-.1-3.46s.05-3.46.1-3.46.1,1.55.1,3.46-.05,3.46-.1,3.46Z"/>
          <path class="cls-4" d="m258.62,324.59c-.06,0-.1-1.55-.1-3.46s.05-3.46.1-3.46.1,1.55.1,3.46-.05,3.46-.1,3.46Z"/>
          <path class="cls-4" d="m265.78,324.59c-.06,0-.1-1.55-.1-3.46s.05-3.46.1-3.46.1,1.55.1,3.46-.05,3.46-.1,3.46Z"/>
          <path class="cls-4" d="m272.84,324.59c-.06,0-.1-1.55-.1-3.46s.05-3.46.1-3.46.1,1.55.1,3.46-.05,3.46-.1,3.46Z"/>
          <path class="cls-4" d="m280.01,324.59c-.06,0-.1-1.55-.1-3.46s.05-3.46.1-3.46.1,1.55.1,3.46-.05,3.46-.1,3.46Z"/>
          <path class="cls-4" d="m287.07,324.59c-.06,0-.1-1.55-.1-3.46s.05-3.46.1-3.46.1,1.55.1,3.46-.05,3.46-.1,3.46Z"/>
          <path class="cls-4" d="m294.23,324.59c-.06,0-.1-1.55-.1-3.46s.05-3.46.1-3.46.1,1.55.1,3.46-.05,3.46-.1,3.46Z"/>
          <path class="cls-4" d="m301.44,324.59c-.06,0-.1-1.55-.1-3.46s.05-3.46.1-3.46.1,1.55.1,3.46-.05,3.46-.1,3.46Z"/>
        </g>
      </g>
      <g>
        <g>
          <path class="cls-4" d="m324.98,324.48s-.06-.03-.16-.11c-.14-.11-.28-.23-.43-.35-.46-.4-.97-.83-1.54-1.33-1.42-1.25-3.13-2.77-5.03-4.44h.14s-.05.04-.05.04c-1.93,1.67-3.67,3.17-5.11,4.41-.58.49-1.1.93-1.56,1.32-.15.12-.29.24-.43.35-.1.08-.16.12-.16.11,0,0,.04-.05.13-.14.13-.12.26-.25.41-.38.45-.41.96-.86,1.52-1.37,1.43-1.26,3.16-2.78,5.07-4.46l.05-.04.07-.06.07.06c1.88,1.69,3.58,3.23,4.99,4.49.55.51,1.05.97,1.49,1.38.14.13.27.26.4.38.09.09.13.14.13.14Z"/>
          <path class="cls-4" d="m339.2,324.48s-.06-.03-.16-.11c-.14-.11-.28-.23-.43-.35-.46-.4-.97-.83-1.54-1.33-1.42-1.25-3.13-2.77-5.03-4.44h.14s-.04.04-.04.04c-1.93,1.67-3.67,3.17-5.11,4.41-.58.49-1.1.93-1.56,1.32-.15.12-.29.24-.43.35-.1.08-.16.12-.16.11s.04-.05.13-.14c.13-.12.26-.25.41-.38.45-.41.96-.86,1.52-1.37,1.43-1.26,3.16-2.78,5.07-4.46l.04-.04.07-.06.07.06c1.88,1.69,3.58,3.23,4.99,4.49.55.51,1.05.97,1.49,1.38.14.13.27.26.4.38.09.09.13.14.13.14Z"/>
          <path class="cls-4" d="m353.43,324.48s-.06-.03-.16-.11c-.14-.11-.28-.23-.43-.35-.46-.4-.97-.83-1.54-1.33-1.42-1.25-3.13-2.77-5.03-4.44h.14s-.04.04-.04.04c-1.93,1.67-3.67,3.17-5.11,4.41-.58.49-1.1.93-1.56,1.32-.15.12-.29.24-.43.35-.1.08-.16.12-.16.11,0,0,.04-.05.13-.14.13-.12.26-.25.41-.38.45-.41.96-.86,1.52-1.37,1.43-1.26,3.16-2.78,5.07-4.46l.05-.04.07-.06.07.06c1.88,1.69,3.58,3.23,4.99,4.49.55.51,1.05.97,1.49,1.38.14.13.27.26.4.38.09.09.13.14.13.14Z"/>
          <path class="cls-4" d="m367.65,324.48s-.06-.03-.16-.11c-.14-.11-.28-.23-.43-.35-.46-.4-.97-.83-1.54-1.33-1.42-1.25-3.13-2.77-5.03-4.44h.14s-.05.04-.05.04c-1.93,1.67-3.67,3.17-5.11,4.41-.58.49-1.1.93-1.56,1.32-.15.12-.29.24-.43.35-.1.08-.16.12-.16.11,0,0,.04-.05.13-.14.13-.12.26-.25.41-.38.45-.41.96-.86,1.52-1.37,1.43-1.26,3.16-2.78,5.07-4.46l.04-.04.07-.06.07.06c1.88,1.69,3.58,3.23,4.99,4.49.55.51,1.05.97,1.49,1.38.14.13.27.26.4.38.09.09.13.14.13.14Z"/>
          <path class="cls-4" d="m381.87,324.48s-.06-.03-.16-.11c-.14-.11-.28-.23-.43-.35-.46-.4-.97-.83-1.54-1.33-1.42-1.25-3.13-2.77-5.03-4.44h.14s-.05.04-.05.04c-1.93,1.67-3.67,3.17-5.11,4.41-.58.49-1.1.93-1.56,1.32-.15.12-.29.24-.43.35-.1.08-.16.12-.16.11,0,0,.04-.05.13-.14.13-.12.26-.25.41-.38.45-.41.96-.86,1.52-1.37,1.43-1.26,3.16-2.78,5.07-4.46l.04-.04.07-.06.07.06c1.88,1.69,3.58,3.23,4.99,4.49.55.51,1.05.97,1.49,1.38.14.13.27.26.4.38.09.09.13.14.13.14Z"/>
          <path class="cls-4" d="m396.1,324.48s-.06-.03-.16-.11c-.14-.11-.28-.23-.43-.35-.46-.4-.97-.83-1.54-1.33-1.42-1.25-3.13-2.77-5.03-4.44h.14s-.05.04-.05.04c-1.93,1.67-3.67,3.17-5.11,4.41-.58.49-1.1.93-1.56,1.32-.15.12-.29.24-.43.35-.1.08-.16.12-.16.11,0,0,.04-.05.13-.14.13-.12.26-.25.41-.38.45-.41.96-.86,1.52-1.37,1.43-1.26,3.16-2.78,5.07-4.46l.05-.04.07-.06.07.06c1.88,1.69,3.58,3.23,4.99,4.49.55.51,1.05.97,1.49,1.38.14.13.27.26.4.38.09.09.13.14.13.14Z"/>
          <path class="cls-4" d="m410.32,324.48s-.06-.03-.16-.11c-.14-.11-.28-.23-.43-.35-.46-.4-.97-.83-1.54-1.33-1.42-1.25-3.13-2.77-5.03-4.44h.14s-.04.04-.04.04c-1.93,1.67-3.67,3.17-5.11,4.41-.58.49-1.1.93-1.56,1.32-.15.12-.29.24-.43.35-.1.08-.16.12-.16.11,0,0,.04-.05.13-.14.13-.12.26-.25.41-.38.45-.41.96-.86,1.52-1.37,1.43-1.26,3.16-2.78,5.07-4.46l.04-.04.07-.06.07.06c1.88,1.69,3.58,3.23,4.99,4.49.55.51,1.05.97,1.49,1.38.14.13.27.26.4.38.09.09.13.14.13.14Z"/>
          <path class="cls-4" d="m424.55,324.48s-.06-.03-.16-.11c-.14-.11-.28-.23-.43-.35-.46-.4-.97-.83-1.54-1.33-1.42-1.25-3.13-2.77-5.03-4.44h.14s-.04.04-.04.04c-1.93,1.67-3.67,3.17-5.11,4.41-.58.49-1.1.93-1.56,1.32-.15.12-.29.24-.43.35-.1.08-.16.12-.16.11s.04-.05.13-.14c.13-.12.26-.25.41-.38.45-.41.96-.86,1.52-1.37,1.43-1.26,3.16-2.78,5.07-4.46l.05-.04.07-.06.07.06c1.88,1.69,3.58,3.23,4.99,4.49.55.51,1.05.97,1.49,1.38.14.13.27.26.4.38.09.09.13.14.13.14Z"/>
          <path class="cls-4" d="m438.77,324.48s-.06-.03-.16-.11c-.14-.11-.28-.23-.43-.35-.46-.4-.97-.83-1.54-1.33-1.42-1.25-3.13-2.77-5.03-4.44h.14s-.05.04-.05.04c-1.93,1.67-3.67,3.17-5.11,4.41-.58.49-1.1.93-1.56,1.32-.15.12-.29.24-.43.35-.1.08-.16.12-.16.11,0,0,.04-.05.13-.14.13-.12.26-.25.41-.38.45-.41.96-.86,1.52-1.37,1.43-1.26,3.16-2.78,5.07-4.46l.05-.04.07-.06.07.06c1.88,1.69,3.58,3.23,4.99,4.49.55.51,1.05.97,1.49,1.38.14.13.27.26.4.38.09.09.13.14.13.14Z"/>
          <path class="cls-4" d="m452.99,324.48s-.06-.03-.16-.11c-.14-.11-.28-.23-.43-.35-.46-.4-.97-.83-1.54-1.33-1.42-1.25-3.13-2.77-5.03-4.44h.14s-.04.04-.04.04c-1.93,1.67-3.67,3.17-5.11,4.41-.58.49-1.1.93-1.56,1.32-.15.12-.29.24-.43.35-.1.08-.16.12-.16.11s.04-.05.13-.14c.13-.12.26-.25.41-.38.45-.41.96-.86,1.52-1.37,1.43-1.26,3.16-2.78,5.07-4.46l.04-.04.07-.06.07.06c1.88,1.69,3.58,3.23,4.99,4.49.55.51,1.05.97,1.49,1.38.14.13.27.26.4.38.09.09.13.14.13.14Z"/>
          <path class="cls-4" d="m467.22,324.48s-.06-.03-.16-.11c-.14-.11-.28-.23-.43-.35-.46-.4-.97-.83-1.54-1.33-1.42-1.25-3.13-2.77-5.03-4.44h.14s-.04.04-.04.04c-1.93,1.67-3.67,3.17-5.11,4.41-.58.49-1.1.93-1.56,1.32-.15.12-.29.24-.43.35-.1.08-.16.12-.16.11s.04-.05.13-.14c.13-.12.26-.25.41-.38.45-.41.96-.86,1.52-1.37,1.43-1.26,3.16-2.78,5.07-4.46l.05-.04.07-.06.07.06c1.88,1.69,3.58,3.23,4.99,4.49.55.51,1.05.97,1.49,1.38.14.13.27.26.4.38.09.09.13.14.13.14Z"/>
          <path class="cls-4" d="m317.8,324.59c-.06,0-.1-1.55-.1-3.46s.05-3.46.1-3.46.1,1.55.1,3.46-.05,3.46-.1,3.46Z"/>
          <path class="cls-4" d="m332.04,324.59c-.06,0-.1-1.55-.1-3.46s.05-3.46.1-3.46.1,1.55.1,3.46-.05,3.46-.1,3.46Z"/>
          <path class="cls-4" d="m324.98,324.59c-.06,0-.1-1.55-.1-3.46s.05-3.46.1-3.46.1,1.55.1,3.46-.05,3.46-.1,3.46Z"/>
          <path class="cls-4" d="m346.28,324.59c-.06,0-.1-1.55-.1-3.46s.05-3.46.1-3.46.1,1.55.1,3.46-.05,3.46-.1,3.46Z"/>
          <path class="cls-4" d="m339.2,324.59c-.06,0-.1-1.55-.1-3.46s.05-3.46.1-3.46.1,1.55.1,3.46-.05,3.46-.1,3.46Z"/>
          <path class="cls-4" d="m360.52,324.59c-.06,0-.1-1.55-.1-3.46s.05-3.46.1-3.46.1,1.55.1,3.46-.05,3.46-.1,3.46Z"/>
          <path class="cls-4" d="m374.76,324.59c-.06,0-.1-1.55-.1-3.46s.05-3.46.1-3.46.1,1.55.1,3.46-.05,3.46-.1,3.46Z"/>
          <path class="cls-4" d="m367.55,324.59c-.06,0-.1-1.55-.1-3.46s.05-3.46.1-3.46.1,1.55.1,3.46-.05,3.46-.1,3.46Z"/>
          <path class="cls-4" d="m353.33,324.59c-.06,0-.1-1.55-.1-3.46s.05-3.46.1-3.46.1,1.55.1,3.46-.05,3.46-.1,3.46Z"/>
          <path class="cls-4" d="m381.87,324.59c-.06,0-.1-1.55-.1-3.46s.05-3.46.1-3.46.1,1.55.1,3.46-.05,3.46-.1,3.46Z"/>
          <path class="cls-4" d="m388.94,324.59c-.06,0-.1-1.55-.1-3.46s.05-3.46.1-3.46.1,1.55.1,3.46-.05,3.46-.1,3.46Z"/>
          <path class="cls-4" d="m396,324.59c-.06,0-.1-1.55-.1-3.46s.05-3.46.1-3.46.1,1.55.1,3.46-.05,3.46-.1,3.46Z"/>
          <path class="cls-4" d="m403.06,324.59c-.06,0-.1-1.55-.1-3.46s.05-3.46.1-3.46.1,1.55.1,3.46-.05,3.46-.1,3.46Z"/>
          <path class="cls-4" d="m410.12,324.59c-.06,0-.1-1.55-.1-3.46s.05-3.46.1-3.46.1,1.55.1,3.46-.05,3.46-.1,3.46Z"/>
          <path class="cls-4" d="m417.38,324.59c-.06,0-.1-1.55-.1-3.46s.05-3.46.1-3.46.1,1.55.1,3.46-.05,3.46-.1,3.46Z"/>
          <path class="cls-4" d="m424.55,324.59c-.06,0-.1-1.55-.1-3.46s.05-3.46.1-3.46.1,1.55.1,3.46-.05,3.46-.1,3.46Z"/>
          <path class="cls-4" d="m431.61,324.59c-.06,0-.1-1.55-.1-3.46s.05-3.46.1-3.46.1,1.55.1,3.46-.05,3.46-.1,3.46Z"/>
          <path class="cls-4" d="m438.77,324.59c-.06,0-.1-1.55-.1-3.46s.05-3.46.1-3.46.1,1.55.1,3.46-.05,3.46-.1,3.46Z"/>
          <path class="cls-4" d="m445.83,324.59c-.06,0-.1-1.55-.1-3.46s.05-3.46.1-3.46.1,1.55.1,3.46-.05,3.46-.1,3.46Z"/>
          <path class="cls-4" d="m452.99,324.59c-.06,0-.1-1.55-.1-3.46s.05-3.46.1-3.46.1,1.55.1,3.46-.05,3.46-.1,3.46Z"/>
          <path class="cls-4" d="m460.2,324.59c-.06,0-.1-1.55-.1-3.46s.05-3.46.1-3.46.1,1.55.1,3.46-.05,3.46-.1,3.46Z"/>
        </g>
        <g>
          <path class="cls-4" d="m482.1,324.48s-.06-.03-.16-.11c-.14-.11-.28-.23-.43-.35-.46-.4-.97-.83-1.54-1.33-1.42-1.25-3.13-2.77-5.03-4.44h.14s-.05.04-.05.04c-1.93,1.67-3.67,3.17-5.11,4.41-.58.49-1.1.93-1.56,1.32-.15.12-.29.24-.43.35-.1.08-.16.12-.16.11,0,0,.04-.05.13-.14.13-.12.26-.25.41-.38.45-.41.96-.86,1.52-1.37,1.43-1.26,3.16-2.78,5.07-4.46l.04-.04.07-.06.07.06c1.88,1.69,3.58,3.23,4.99,4.49.55.51,1.05.97,1.49,1.38.14.13.27.26.4.38.09.09.13.14.13.14Z"/>
          <path class="cls-4" d="m496.33,324.48s-.06-.03-.16-.11c-.14-.11-.28-.23-.43-.35-.46-.4-.97-.83-1.54-1.33-1.42-1.25-3.13-2.77-5.03-4.44h.14s-.04.04-.04.04c-1.93,1.67-3.67,3.17-5.11,4.41-.58.49-1.1.93-1.56,1.32-.15.12-.29.24-.43.35-.1.08-.16.12-.16.11,0,0,.04-.05.13-.14.13-.12.26-.25.41-.38.45-.41.96-.86,1.52-1.37,1.43-1.26,3.16-2.78,5.07-4.46l.05-.04.07-.06.07.06c1.88,1.69,3.58,3.23,4.99,4.49.55.51,1.05.97,1.49,1.38.14.13.27.26.4.38.09.09.13.14.13.14Z"/>
          <path class="cls-4" d="m510.55,324.48s-.06-.03-.16-.11c-.14-.11-.28-.23-.43-.35-.46-.4-.97-.83-1.54-1.33-1.42-1.25-3.13-2.77-5.03-4.44h.14s-.04.04-.04.04c-1.93,1.67-3.67,3.17-5.11,4.41-.58.49-1.1.93-1.56,1.32-.15.12-.29.24-.43.35-.1.08-.16.12-.16.11,0,0,.04-.05.13-.14.13-.12.26-.25.41-.38.45-.41.96-.86,1.52-1.37,1.43-1.26,3.16-2.78,5.07-4.46l.05-.04.07-.06.07.06c1.88,1.69,3.58,3.23,4.99,4.49.55.51,1.05.97,1.49,1.38.14.13.27.26.4.38.09.09.13.14.13.14Z"/>
          <path class="cls-4" d="m524.77,324.48s-.06-.03-.16-.11c-.14-.11-.28-.23-.43-.35-.46-.4-.97-.83-1.54-1.33-1.42-1.25-3.13-2.77-5.03-4.44h.14s-.04.04-.04.04c-1.93,1.67-3.67,3.17-5.11,4.41-.58.49-1.1.93-1.56,1.32-.15.12-.29.24-.43.35-.1.08-.16.12-.16.11s.04-.05.13-.14c.13-.12.26-.25.41-.38.45-.41.96-.86,1.52-1.37,1.43-1.26,3.16-2.78,5.07-4.46l.05-.04.07-.06.07.06c1.88,1.69,3.58,3.23,4.99,4.49.55.51,1.05.97,1.49,1.38.14.13.27.26.4.38.09.09.13.14.13.14Z"/>
          <path class="cls-4" d="m539,324.48s-.06-.03-.16-.11c-.14-.11-.28-.23-.43-.35-.46-.4-.97-.83-1.54-1.33-1.42-1.25-3.13-2.77-5.03-4.44h.14s-.05.04-.05.04c-1.93,1.67-3.67,3.17-5.11,4.41-.58.49-1.1.93-1.56,1.32-.15.12-.29.24-.43.35-.1.08-.16.12-.16.11,0,0,.04-.05.13-.14.13-.12.26-.25.41-.38.45-.41.96-.86,1.52-1.37,1.43-1.26,3.16-2.78,5.07-4.46l.05-.04.07-.06.07.06c1.88,1.69,3.58,3.23,4.99,4.49.55.51,1.05.97,1.49,1.38.14.13.27.26.4.38.09.09.13.14.13.14Z"/>
          <path class="cls-4" d="m553.22,324.48s-.06-.03-.16-.11c-.14-.11-.28-.23-.43-.35-.46-.4-.97-.83-1.54-1.33-1.42-1.25-3.13-2.77-5.03-4.44h.14s-.05.04-.05.04c-1.93,1.67-3.67,3.17-5.11,4.41-.58.49-1.1.93-1.56,1.32-.15.12-.29.24-.43.35-.1.08-.16.12-.16.11s.04-.05.13-.14c.13-.12.26-.25.41-.38.45-.41.96-.86,1.52-1.37,1.43-1.26,3.16-2.78,5.07-4.46l.05-.04.07-.06.07.06c1.88,1.69,3.58,3.23,4.99,4.49.55.51,1.05.97,1.49,1.38.14.13.27.26.4.38.09.09.13.14.13.14Z"/>
          <path class="cls-4" d="m567.44,324.48s-.06-.03-.16-.11c-.14-.11-.28-.23-.43-.35-.46-.4-.97-.83-1.54-1.33-1.42-1.25-3.13-2.77-5.03-4.44h.14s-.04.04-.04.04c-1.93,1.67-3.67,3.17-5.11,4.41-.58.49-1.1.93-1.56,1.32-.15.12-.29.24-.43.35-.1.08-.16.12-.16.11s.04-.05.13-.14c.13-.12.26-.25.41-.38.45-.41.96-.86,1.52-1.37,1.43-1.26,3.16-2.78,5.07-4.46l.05-.04.07-.06.07.06c1.88,1.69,3.58,3.23,4.99,4.49.55.51,1.05.97,1.49,1.38.14.13.27.26.4.38.09.09.13.14.13.14Z"/>
          <path class="cls-4" d="m581.67,324.48s-.06-.03-.16-.11c-.14-.11-.28-.23-.43-.35-.46-.4-.97-.83-1.54-1.33-1.42-1.25-3.13-2.77-5.03-4.44h.14s-.05.04-.05.04c-1.93,1.67-3.67,3.17-5.11,4.41-.58.49-1.1.93-1.56,1.32-.15.12-.29.24-.43.35-.1.08-.16.12-.16.11,0,0,.04-.05.13-.14.13-.12.26-.25.41-.38.45-.41.96-.86,1.52-1.37,1.43-1.26,3.16-2.78,5.07-4.46l.05-.04.07-.06.07.06c1.88,1.69,3.58,3.23,4.99,4.49.55.51,1.05.97,1.49,1.38.14.13.27.26.4.38.09.09.13.14.13.14Z"/>
          <path class="cls-4" d="m595.89,324.48s-.06-.03-.16-.11c-.14-.11-.28-.23-.43-.35-.46-.4-.97-.83-1.54-1.33-1.42-1.25-3.13-2.77-5.03-4.44h.14s-.05.04-.05.04c-1.93,1.67-3.67,3.17-5.11,4.41-.58.49-1.1.93-1.56,1.32-.15.12-.29.24-.43.35-.1.08-.16.12-.16.11s.04-.05.13-.14c.13-.12.26-.25.41-.38.45-.41.96-.86,1.52-1.37,1.43-1.26,3.16-2.78,5.07-4.46l.05-.04.07-.06.07.06c1.88,1.69,3.58,3.23,4.99,4.49.55.51,1.05.97,1.49,1.38.14.13.27.26.4.38.09.09.13.14.13.14Z"/>
          <path class="cls-4" d="m610.12,324.48s-.06-.03-.16-.11c-.14-.11-.28-.23-.43-.35-.46-.4-.97-.83-1.54-1.33-1.42-1.25-3.13-2.77-5.03-4.44h.14s-.04.04-.04.04c-1.93,1.67-3.67,3.17-5.11,4.41-.58.49-1.1.93-1.56,1.32-.15.12-.29.24-.43.35-.1.08-.16.12-.16.11s.04-.05.13-.14c.13-.12.26-.25.41-.38.45-.41.96-.86,1.52-1.37,1.43-1.26,3.16-2.78,5.07-4.46l.05-.04.07-.06.07.06c1.88,1.69,3.58,3.23,4.99,4.49.55.51,1.05.97,1.49,1.38.14.13.27.26.4.38.09.09.13.14.13.14Z"/>
          <path class="cls-4" d="m624.34,324.48s-.06-.03-.16-.11c-.14-.11-.28-.23-.43-.35-.46-.4-.97-.83-1.54-1.33-1.42-1.25-3.13-2.77-5.03-4.44h.14s-.05.04-.05.04c-1.93,1.67-3.67,3.17-5.11,4.41-.58.49-1.1.93-1.56,1.32-.15.12-.29.24-.43.35-.1.08-.16.12-.16.11,0,0,.04-.05.13-.14.13-.12.26-.25.41-.38.45-.41.96-.86,1.52-1.37,1.43-1.26,3.16-2.78,5.07-4.46l.04-.04.07-.06.07.06c1.88,1.69,3.58,3.23,4.99,4.49.55.51,1.05.97,1.49,1.38.14.13.27.26.4.38.09.09.13.14.13.14Z"/>
          <path class="cls-4" d="m474.92,324.59c-.06,0-.1-1.55-.1-3.46s.05-3.46.1-3.46.1,1.55.1,3.46-.05,3.46-.1,3.46Z"/>
          <path class="cls-4" d="m489.16,324.59c-.06,0-.1-1.55-.1-3.46s.05-3.46.1-3.46.1,1.55.1,3.46-.05,3.46-.1,3.46Z"/>
          <path class="cls-4" d="m482.1,324.59c-.06,0-.1-1.55-.1-3.46s.05-3.46.1-3.46.1,1.55.1,3.46-.05,3.46-.1,3.46Z"/>
          <path class="cls-4" d="m503.4,324.59c-.06,0-.1-1.55-.1-3.46s.05-3.46.1-3.46.1,1.55.1,3.46-.05,3.46-.1,3.46Z"/>
          <path class="cls-4" d="m496.33,324.59c-.06,0-.1-1.55-.1-3.46s.05-3.46.1-3.46.1,1.55.1,3.46-.05,3.46-.1,3.46Z"/>
          <path class="cls-4" d="m517.64,324.59c-.06,0-.1-1.55-.1-3.46s.05-3.46.1-3.46.1,1.55.1,3.46-.05,3.46-.1,3.46Z"/>
          <path class="cls-4" d="m531.88,324.59c-.06,0-.1-1.55-.1-3.46s.05-3.46.1-3.46.1,1.55.1,3.46-.05,3.46-.1,3.46Z"/>
          <path class="cls-4" d="m524.67,324.59c-.06,0-.1-1.55-.1-3.46s.05-3.46.1-3.46.1,1.55.1,3.46-.05,3.46-.1,3.46Z"/>
          <path class="cls-4" d="m510.45,324.59c-.06,0-.1-1.55-.1-3.46s.05-3.46.1-3.46.1,1.55.1,3.46-.05,3.46-.1,3.46Z"/>
          <path class="cls-4" d="m539,324.59c-.06,0-.1-1.55-.1-3.46s.05-3.46.1-3.46.1,1.55.1,3.46-.05,3.46-.1,3.46Z"/>
          <path class="cls-4" d="m546.06,324.59c-.06,0-.1-1.55-.1-3.46s.05-3.46.1-3.46.1,1.55.1,3.46-.05,3.46-.1,3.46Z"/>
          <path class="cls-4" d="m553.12,324.59c-.06,0-.1-1.55-.1-3.46s.05-3.46.1-3.46.1,1.55.1,3.46-.05,3.46-.1,3.46Z"/>
          <path class="cls-4" d="m560.18,324.59c-.06,0-.1-1.55-.1-3.46s.05-3.46.1-3.46.1,1.55.1,3.46-.05,3.46-.1,3.46Z"/>
          <path class="cls-4" d="m567.24,324.59c-.06,0-.1-1.55-.1-3.46s.05-3.46.1-3.46.1,1.55.1,3.46-.05,3.46-.1,3.46Z"/>
          <path class="cls-4" d="m574.51,324.59c-.06,0-.1-1.55-.1-3.46s.05-3.46.1-3.46.1,1.55.1,3.46-.05,3.46-.1,3.46Z"/>
          <path class="cls-4" d="m581.67,324.59c-.06,0-.1-1.55-.1-3.46s.05-3.46.1-3.46.1,1.55.1,3.46-.05,3.46-.1,3.46Z"/>
          <path class="cls-4" d="m588.73,324.59c-.06,0-.1-1.55-.1-3.46s.05-3.46.1-3.46.1,1.55.1,3.46-.05,3.46-.1,3.46Z"/>
          <path class="cls-4" d="m595.89,324.59c-.06,0-.1-1.55-.1-3.46s.05-3.46.1-3.46.1,1.55.1,3.46-.05,3.46-.1,3.46Z"/>
          <path class="cls-4" d="m602.95,324.59c-.06,0-.1-1.55-.1-3.46s.05-3.46.1-3.46.1,1.55.1,3.46-.05,3.46-.1,3.46Z"/>
          <path class="cls-4" d="m610.12,324.59c-.06,0-.1-1.55-.1-3.46s.05-3.46.1-3.46.1,1.55.1,3.46-.05,3.46-.1,3.46Z"/>
          <path class="cls-4" d="m617.33,324.59c-.06,0-.1-1.55-.1-3.46s.05-3.46.1-3.46.1,1.55.1,3.46-.05,3.46-.1,3.46Z"/>
        </g>
      </g>
      <g>
        <path class="cls-4" d="m638.66,324.48s-.06-.03-.16-.11c-.14-.11-.28-.23-.43-.35-.46-.4-.97-.83-1.54-1.33-1.42-1.25-3.13-2.77-5.03-4.44h.14s-.04.04-.04.04c-1.93,1.67-3.67,3.17-5.11,4.41-.58.49-1.1.93-1.56,1.32-.15.12-.29.24-.43.35-.1.08-.16.12-.16.11,0,0,.04-.05.13-.14.13-.12.26-.25.41-.38.45-.41.96-.86,1.52-1.37,1.43-1.26,3.16-2.78,5.07-4.46l.04-.04.07-.06.07.06c1.88,1.69,3.58,3.23,4.99,4.49.55.51,1.05.97,1.49,1.38.14.13.27.26.4.38.09.09.13.14.13.14Z"/>
        <path class="cls-4" d="m652.89,324.48s-.06-.03-.16-.11c-.14-.11-.28-.23-.43-.35-.46-.4-.97-.83-1.54-1.33-1.42-1.25-3.13-2.77-5.03-4.44h.14s-.05.04-.05.04c-1.93,1.67-3.67,3.17-5.11,4.41-.58.49-1.1.93-1.56,1.32-.15.12-.29.24-.43.35-.1.08-.16.12-.16.11,0,0,.04-.05.13-.14.13-.12.26-.25.41-.38.45-.41.96-.86,1.52-1.37,1.43-1.26,3.16-2.78,5.07-4.46l.05-.04.07-.06.07.06c1.88,1.69,3.58,3.23,4.99,4.49.55.51,1.05.97,1.49,1.38.14.13.27.26.4.38.09.09.13.14.13.14Z"/>
        <path class="cls-4" d="m667.11,324.48s-.06-.03-.16-.11c-.14-.11-.28-.23-.43-.35-.46-.4-.97-.83-1.54-1.33-1.42-1.25-3.13-2.77-5.03-4.44h.14s-.04.04-.04.04c-1.93,1.67-3.67,3.17-5.11,4.41-.58.49-1.1.93-1.56,1.32-.15.12-.29.24-.43.35-.1.08-.16.12-.16.11s.04-.05.13-.14c.13-.12.26-.25.41-.38.45-.41.96-.86,1.52-1.37,1.43-1.26,3.16-2.78,5.07-4.46l.05-.04.07-.06.07.06c1.88,1.69,3.58,3.23,4.99,4.49.55.51,1.05.97,1.49,1.38.14.13.27.26.4.38.09.09.13.14.13.14Z"/>
        <path class="cls-4" d="m681.34,324.48s-.06-.03-.16-.11c-.14-.11-.28-.23-.43-.35-.46-.4-.97-.83-1.54-1.33-1.42-1.25-3.13-2.77-5.03-4.44h.14s-.04.04-.04.04c-1.93,1.67-3.67,3.17-5.11,4.41-.58.49-1.1.93-1.56,1.32-.15.12-.29.24-.43.35-.1.08-.16.12-.16.11,0,0,.04-.05.13-.14.13-.12.26-.25.41-.38.45-.41.96-.86,1.52-1.37,1.43-1.26,3.16-2.78,5.07-4.46l.05-.04.07-.06.07.06c1.88,1.69,3.58,3.23,4.99,4.49.55.51,1.05.97,1.49,1.38.14.13.27.26.4.38.09.09.13.14.13.14Z"/>
        <path class="cls-4" d="m695.56,324.48s-.06-.03-.16-.11c-.14-.11-.28-.23-.43-.35-.46-.4-.97-.83-1.54-1.33-1.42-1.25-3.13-2.77-5.03-4.44h.14s-.05.04-.05.04c-1.93,1.67-3.67,3.17-5.11,4.41-.58.49-1.1.93-1.56,1.32-.15.12-.29.24-.43.35-.1.08-.16.12-.16.11,0,0,.04-.05.13-.14.13-.12.26-.25.41-.38.45-.41.96-.86,1.52-1.37,1.43-1.26,3.16-2.78,5.07-4.46l.04-.04.07-.06.07.06c1.88,1.69,3.58,3.23,4.99,4.49.55.51,1.05.97,1.49,1.38.14.13.27.26.4.38.09.09.13.14.13.14Z"/>
        <path class="cls-4" d="m709.78,324.48s-.06-.03-.16-.11c-.14-.11-.28-.23-.43-.35-.46-.4-.97-.83-1.54-1.33-1.42-1.25-3.13-2.77-5.03-4.44h.14s-.05.04-.05.04c-1.93,1.67-3.67,3.17-5.11,4.41-.58.49-1.1.93-1.56,1.32-.15.12-.29.24-.43.35-.1.08-.16.12-.16.11,0,0,.04-.05.13-.14.13-.12.26-.25.41-.38.45-.41.96-.86,1.52-1.37,1.43-1.26,3.16-2.78,5.07-4.46l.05-.04.07-.06.07.06c1.88,1.69,3.58,3.23,4.99,4.49.55.51,1.05.97,1.49,1.38.14.13.27.26.4.38.09.09.13.14.13.14Z"/>
        <path class="cls-4" d="m631.49,324.59c-.06,0-.1-1.55-.1-3.46s.05-3.46.1-3.46.1,1.55.1,3.46-.05,3.46-.1,3.46Z"/>
        <path class="cls-4" d="m645.73,324.59c-.06,0-.1-1.55-.1-3.46s.05-3.46.1-3.46.1,1.55.1,3.46-.05,3.46-.1,3.46Z"/>
        <path class="cls-4" d="m638.66,324.59c-.06,0-.1-1.55-.1-3.46s.05-3.46.1-3.46.1,1.55.1,3.46-.05,3.46-.1,3.46Z"/>
        <path class="cls-4" d="m659.96,324.59c-.06,0-.1-1.55-.1-3.46s.05-3.46.1-3.46.1,1.55.1,3.46-.05,3.46-.1,3.46Z"/>
        <path class="cls-4" d="m652.89,324.59c-.06,0-.1-1.55-.1-3.46s.05-3.46.1-3.46.1,1.55.1,3.46-.05,3.46-.1,3.46Z"/>
        <path class="cls-4" d="m674.2,324.59c-.06,0-.1-1.55-.1-3.46s.05-3.46.1-3.46.1,1.55.1,3.46-.05,3.46-.1,3.46Z"/>
        <path class="cls-4" d="m688.44,324.59c-.06,0-.1-1.55-.1-3.46s.05-3.46.1-3.46.1,1.55.1,3.46-.05,3.46-.1,3.46Z"/>
        <path class="cls-4" d="m681.23,324.59c-.06,0-.1-1.55-.1-3.46s.05-3.46.1-3.46.1,1.55.1,3.46-.05,3.46-.1,3.46Z"/>
        <path class="cls-4" d="m667.01,324.59c-.06,0-.1-1.55-.1-3.46s.05-3.46.1-3.46.1,1.55.1,3.46-.05,3.46-.1,3.46Z"/>
        <path class="cls-4" d="m695.56,324.59c-.06,0-.1-1.55-.1-3.46s.05-3.46.1-3.46.1,1.55.1,3.46-.05,3.46-.1,3.46Z"/>
        <path class="cls-4" d="m702.62,324.59c-.06,0-.1-1.55-.1-3.46s.05-3.46.1-3.46.1,1.55.1,3.46-.05,3.46-.1,3.46Z"/>
      </g>
      <rect class="cls-10" x="199.21" y="324.59" width="31.83" height="4.01"/>
      <rect class="cls-19" x="199.21" y="324.59" width="31.83" height="4.01"/>
      <rect class="cls-19" x="206.29" y="332.88" width="17.66" height="51.78"/>
      <rect class="cls-19" x="203.2" y="384.66" width="24.7" height="12.34"/>
      <rect class="cls-19" x="199.7" y="397" width="31.33" height="26.59"/>
      <g>
        <rect class="cls-19" x="203.98" y="328.37" width="22.25" height="4.51"/>
        <g class="cls-14">
          <rect class="cls-19" x="203.98" y="328.37" width="22.25" height="4.51"/>
        </g>
      </g>
      <path class="cls-20" d="m227.52,384.49c0,.14-5.47.26-12.22.26s-12.22-.12-12.22-.26,5.47-.26,12.22-.26,12.22.12,12.22.26Z"/>
      <path class="cls-20" d="m230.4,396.89c0,.14-6.98.26-15.58.26s-15.59-.12-15.59-.26,6.98-.26,15.59-.26,15.58.12,15.58.26Z"/>
      <rect class="cls-10" x="154.85" y="324.59" width="31.83" height="4.01"/>
      <rect class="cls-4" x="154.85" y="324.59" width="31.83" height="4.01"/>
      <rect class="cls-10" x="161.93" y="332.88" width="17.66" height="51.78"/>
      <rect class="cls-10" x="158.84" y="384.66" width="24.7" height="12.34"/>
      <rect class="cls-10" x="155.34" y="397" width="31.33" height="26.59"/>
      <rect class="cls-4" x="161.93" y="332.88" width="17.66" height="51.78"/>
      <rect class="cls-4" x="158.84" y="384.66" width="24.7" height="12.34"/>
      <rect class="cls-4" x="155.34" y="397" width="31.33" height="26.59"/>
      <g>
        <rect class="cls-19" x="159.62" y="328.37" width="22.25" height="4.51"/>
        <g class="cls-13">
          <rect class="cls-19" x="159.62" y="328.37" width="22.25" height="4.51"/>
        </g>
      </g>
      <rect class="cls-19" x="144.15" y="416.73" width="98.49" height="9.68"/>
      <rect class="cls-4" x="187.38" y="416.73" width="55.26" height="9.68"/>
      <path class="cls-20" d="m183.16,384.49c0,.14-5.47.26-12.22.26s-12.22-.12-12.22-.26,5.47-.26,12.22-.26,12.22.12,12.22.26Z"/>
      <path class="cls-20" d="m186.04,396.89c0,.14-6.98.26-15.58.26s-15.59-.12-15.59-.26,6.98-.26,15.59-.26,15.58.12,15.58.26Z"/>
      <path class="cls-20" d="m242.64,416.73c0,.14-22.15.26-49.47.26s-49.48-.12-49.48-.26,22.15-.26,49.48-.26,49.47.12,49.47.26Z"/>
      <g>
        <rect class="cls-19" x="558.96" y="324.59" width="31.83" height="4.01"/>
        <g class="cls-7">
          <rect class="cls-19" x="558.96" y="324.59" width="31.83" height="4.01"/>
        </g>
        <rect class="cls-19" x="566.05" y="332.88" width="17.66" height="51.78"/>
        <rect class="cls-19" x="562.95" y="384.66" width="24.7" height="12.34"/>
        <rect class="cls-19" x="559.45" y="397" width="31.33" height="26.59"/>
        <g>
          <rect class="cls-19" x="563.74" y="328.37" width="22.25" height="4.51"/>
          <g class="cls-14">
            <rect class="cls-19" x="563.74" y="328.37" width="22.25" height="4.51"/>
          </g>
        </g>
      </g>
      <path class="cls-20" d="m587.28,384.49c0,.14-5.47.26-12.22.26s-12.22-.12-12.22-.26,5.47-.26,12.22-.26,12.22.12,12.22.26Z"/>
      <path class="cls-20" d="m590.16,396.89c0,.14-6.98.26-15.58.26s-15.59-.12-15.59-.26,6.98-.26,15.59-.26,15.58.12,15.58.26Z"/>
      <g>
        <rect class="cls-4" x="514.6" y="324.59" width="31.83" height="4.01"/>
        <g class="cls-12">
          <rect class="cls-4" x="514.6" y="324.59" width="31.83" height="4.01"/>
        </g>
        <rect class="cls-4" x="521.69" y="332.88" width="17.66" height="51.78"/>
        <rect class="cls-4" x="518.59" y="384.66" width="24.7" height="12.34"/>
        <rect class="cls-4" x="515.09" y="397" width="31.33" height="26.59"/>
        <g class="cls-7">
          <rect class="cls-4" x="521.69" y="332.88" width="17.66" height="51.78"/>
        </g>
        <g class="cls-7">
          <rect class="cls-4" x="518.59" y="384.66" width="24.7" height="12.34"/>
        </g>
        <g class="cls-7">
          <rect class="cls-4" x="515.09" y="397" width="31.33" height="26.59"/>
        </g>
        <g>
          <rect class="cls-4" x="519.37" y="328.37" width="22.25" height="4.51"/>
          <g class="cls-13">
            <rect class="cls-4" x="519.37" y="328.37" width="22.25" height="4.51"/>
          </g>
        </g>
      </g>
      <rect class="cls-19" x="503.9" y="416.73" width="98.49" height="9.68"/>
      <g class="cls-13">
        <rect x="547.14" y="416.73" width="55.26" height="9.68"/>
      </g>
      <path class="cls-20" d="m542.91,384.49c0,.14-5.47.26-12.22.26s-12.22-.12-12.22-.26,5.47-.26,12.22-.26,12.22.12,12.22.26Z"/>
      <path class="cls-20" d="m545.8,396.89c0,.14-6.98.26-15.58.26s-15.59-.12-15.59-.26,6.98-.26,15.59-.26,15.58.12,15.58.26Z"/>
      <path class="cls-20" d="m602.39,416.73c0,.14-22.15.26-49.47.26s-49.48-.12-49.48-.26,22.15-.26,49.48-.26,49.47.12,49.47.26Z"/>
    </g>
  </g>
</svg>